<svg xmlns="http://www.w3.org/2000/svg" xmlns:xlink="http://www.w3.org/1999/xlink" viewBox="0 0 24 24"><defs><linearGradient id="a" x1="2" x2="12" y1="12" y2="12" gradientUnits="userSpaceOnUse"><stop offset="0" stop-color="#16b0e2"/><stop offset="1" stop-color="#6e5af0"/></linearGradient><linearGradient id="b" x1="12" x2="22" y1="12.005" y2="12.005" xlink:href="#a"/><linearGradient id="c" x1="4.75" x2="8.5" y1="8.496" y2="8.496" xlink:href="#a"/><linearGradient id="d" x1="4.75" x2="9.25" y1="11.496" y2="11.496" xlink:href="#a"/></defs><g data-name="1"><path fill="url(#a)" d="M12,5.3v16.03a1.009,1.009,0,0,1-.49-.11l-.04-.02a25.693,25.693,0,0,0-7.44-2.44l-.29-.04A2.055,2.055,0,0,1,2,16.744V4.664a1.967,1.967,0,0,1,2.16-1.99,18.757,18.757,0,0,1,7.06,2.34l.25.15A1.048,1.048,0,0,0,12,5.3Z" opacity=".4"/><path fill="url(#b)" d="M22,4.674v12.07a2.055,2.055,0,0,1-1.74,1.98l-.33.04a25.461,25.461,0,0,0-7.46,2.46.885.885,0,0,1-.47.11V5.3a1.048,1.048,0,0,0,.53-.14l.17-.11a18.851,18.851,0,0,1,7.07-2.37h.06A1.97,1.97,0,0,1,22,4.674Z"/><path fill="url(#c)" d="M7.75,9.246H5.5a.75.75,0,0,1,0-1.5H7.75a.75.75,0,1,1,0,1.5Z"/><path fill="url(#d)" d="M8.5,12.246h-3a.75.75,0,0,1,0-1.5h3a.75.75,0,0,1,0,1.5Z"/></g></svg>