<svg xmlns="http://www.w3.org/2000/svg" data-name="图层 1" viewBox="0 0 256 256" id="boy"><path fill="#da865c" d="M181.38,254.46c0-22.62-21.43-46.47-49.58-51.23V177.75H111.54v25.48C83.39,208,62,231.84,62,254.46,63.23,253.19,182.65,253.19,181.38,254.46Z"></path><rect width="20.26" height="16.25" x="111.54" y="177.75" fill="#c97c55"></rect><path fill="#39240f" d="M209,75.3a19.6,19.6,0,0,0-14.15-18.82,19.61,19.61,0,0,0-21.78-27.14,19.6,19.6,0,0,0-30.31-13.07,21.35,21.35,0,0,0-38.65,0A19.6,19.6,0,0,0,73.82,29.34,19.38,19.38,0,0,0,70,29,19.58,19.58,0,0,0,52.05,56.48a19.59,19.59,0,0,0-9.56,31.44A33,33,0,1,0,76.85,72.29a19.21,19.21,0,0,0-1.42-4.9A19.62,19.62,0,0,0,89.31,51.75a19.59,19.59,0,0,0,20.9-9.58,21.33,21.33,0,0,0,26.49,0,19.61,19.61,0,0,0,20.91,9.58,19.59,19.59,0,0,0,13.87,15.64,19.63,19.63,0,0,0-1.42,4.9,33,33,0,1,0,34.36,15.63A19.53,19.53,0,0,0,209,75.3Z"></path><path fill="#d7805d" d="M54 123.9c3.29 4.2 2.66 15.92 1.14 17.12s-13-1-16.34-5.19A9.66 9.66 0 0154 123.9zM192.4 123.9c-3.29 4.2-2.66 15.92-1.14 17.12s13.05-1 16.34-5.19a9.66 9.66 0 00-15.2-11.93z"></path><path fill="#da865c" d="M194.55,126.45c5.16,43.81-27.26,62.05-71,62.05s-78.15-18.24-72.95-62c5.35-43.81,37.3-75.21,72-75.21S189.2,82.64,194.55,126.45Z"></path><path fill="none" stroke="#8b3607" stroke-linecap="round" stroke-linejoin="round" stroke-width="3" d="M129,132.89a6.44,6.44,0,0,0-12.87,0"></path><path fill="none" stroke="#3d2513" stroke-linecap="round" stroke-linejoin="round" stroke-width="5" d="M79.07,94.68a8.94,8.94,0,0,1,6.4-3.32,9.09,9.09,0,0,1,3.51.49"></path><circle cx="86.02" cy="119.87" r="9.8" fill="#fff"></circle><circle cx="86.02" cy="119.87" r="6.24" fill="#3d2513"></circle><circle cx="89.59" cy="118.09" r="2.67" fill="#fff"></circle><path fill="none" stroke="#3d2513" stroke-linecap="round" stroke-linejoin="round" stroke-width="2" d="M77.89,114.39A9.81,9.81,0,0,1,93,112.94"></path><path fill="none" stroke="#3d2513" stroke-linecap="round" stroke-linejoin="round" stroke-width="5" d="M165.17,94.68a8.94,8.94,0,0,0-6.4-3.32,9.09,9.09,0,0,0-3.51.49"></path><circle cx="158.22" cy="119.87" r="9.8" fill="#fff"></circle><circle cx="158.22" cy="119.87" r="6.24" fill="#3d2513"></circle><path fill="none" stroke="#3d2513" stroke-linecap="round" stroke-linejoin="round" stroke-width="2" d="M166.35,114.39a9.82,9.82,0,0,0-15.07-1.45"></path><circle cx="162.67" cy="118.09" r="2.67" fill="#fff"></circle><path fill="none" stroke="#8b3607" stroke-linejoin="round" stroke-width="2" d="M153.8,155C148,159,139,165,124,165s-22.64-5.81-28.58-9.65"></path><path fill="none" stroke="#8b3607" stroke-linecap="round" stroke-linejoin="round" d="M154.16 157.82a2.64 2.64 0 00-2.2-4.08M95.34 157.82a2.64 2.64 0 012.21-4.08"></path><ellipse cx="74" cy="141.31" fill="#d67656" rx="12.94" ry="8.91" transform="rotate(-2.04 73.896 141.214)"></ellipse><circle cx="67.3" cy="138.59" r="3.57" fill="#d67656"></circle><ellipse cx="170.26" cy="141.31" fill="#d67656" rx="8.91" ry="12.94" transform="rotate(-87.96 170.26 141.308)"></ellipse><circle cx="176.96" cy="138.59" r="3.57" fill="#fff" opacity=".2"></circle><circle cx="67.3" cy="138.59" r="3.57" fill="#fff" opacity=".2"></circle><path fill="#3d2513" d="M182.58,67.34a15.41,15.41,0,0,0-5.2.92,19.88,19.88,0,0,0-29.95-21.08,25.88,25.88,0,0,0-51.51,0A19.89,19.89,0,0,0,65.92,68a15.25,15.25,0,0,0-4.56-.69A15.45,15.45,0,1,0,76.81,82.79c0-.27,0-.54,0-.81A19.85,19.85,0,0,0,104.64,69.2a25.86,25.86,0,0,0,34.06,0,19.87,19.87,0,0,0,28.49,12.48c0,.37-.06.74-.06,1.11a15.45,15.45,0,1,0,15.45-15.45Z"></path><path fill="#c0322c" d="M156.43,242h22.86c-5.24-15.87-19.88-30.48-38.7-36.59a45.71,45.71,0,0,1-37-.28C84.37,211.05,69.37,225.87,64.05,242H86.91v11.69c20.41-.22,49.12-.22,69.52,0Z"></path><path fill="#c7342e" d="M86.91,249.88h69.52v-4H86.91Zm89.34-15H67.06c-.68,1.32-1.3,2.65-1.86,4H178.13C177.58,237.53,176.94,236.2,176.25,234.88Zm-20.19-22H87.24a63.91,63.91,0,0,0-5.4,4h79.62A65.56,65.56,0,0,0,156.06,212.88Zm12.62,11H74.63q-1.71,2-3.21,4H171.91C170.91,226.51,169.82,225.18,168.68,223.88Z"></path><path fill="#ffe9e8" d="M119.64,209.08c-.75,0-1.5-.11-2.23-.18l-.39,0c-.76-.09-1.51-.19-2.25-.31h-.08c-.76-.13-1.5-.27-2.23-.43l-.17,0c-.74-.17-1.45-.35-2.16-.54l-.23-.07c-.72-.2-1.42-.41-2.11-.65l-.05,0a36.83,36.83,0,0,1-4-1.65l-.09,0c-1.45.45-2.88,1-4.29,1.51,5.8,4,14,6.54,23.09,6.54,8.8,0,16.77-2.35,22.53-6.16-1.42-.58-2.86-1.13-4.34-1.61-.63.29-1.28.57-2,.83l-.07,0a40.87,40.87,0,0,1-4.22,1.38h0q-1,.27-2.13.51l-.26.05c-.72.15-1.44.28-2.18.4h-.06c-.7.11-1.42.2-2.15.28l-.32,0c-.71.08-1.43.13-2.16.17l-.43,0c-.75,0-1.5.06-2.26.06s-1.59,0-2.37-.06Z"></path></svg>