
<svg xmlns="http://www.w3.org/2000/svg" enable-background="new 0 0 300 300" viewBox="0 0 300 300" id="completed-graduate-during-coronavirus"><path fill="#efdec9" d="M281.6,232.4c3.2-11.6,0.9-28.3-2.2-34.4c-6.3-12.3-18.7-14.5-29.3-23.3c-20.1-16.7-18-54.2-21.4-66.3    c-11.9-42.1-63.8-36.8-83-9.3c-3.2,4.6-13.5,20.4-32.7,26.3c-21.8,6.6-41.1-2-61.9,9.2c-6.3,3.4-12.9,8.8-17.6,14.1    c-6.7,7.5-11.6,16.5-14.2,26.2c-5.2,19.4-1.2,40.7,9.6,57.5H281.6z"></path><rect width="81.9" height="108.9" x="144.6" y="106.9" fill="#dbcac1"></rect><path fill="#fff" d="M226.4,143.4v-0.9h-25.8v-35.6h-0.9v35.6h-28v-35.6h-0.9v35.6h-26.3v0.9h26.3v38.8h-26.3v0.9h26.3v32.7     h0.9v-32.7h28v32.7h0.9v-32.7h25.8v-0.9h-25.8v-38.8H226.4z M199.8,182.2h-28v-38.8h28V182.2z" opacity=".5"></path><path fill="#77434e" d="M156.9,102l-22-0.6c-1.4-5.8-2.9-12.7-2.7-14.5c0.2-1.2,0.6-1.8,1.1-2c1.2-0.5,2.2-1.4,2.8-2.4             c1.4-2.4,5-5.4,13.7-4.4c5.5,0.6,9.5,4.4,9.7,5.9c0.2,1.5-0.4,2.6-0.4,2.6s1.8,0.3,1,3.5             C159.9,91.7,158.4,97.1,156.9,102z"></path><rect width="10.2" height="14.8" x="141.2" y="101.5" fill="#f8ad9c"></rect><path fill="#f8ad9c" d="M136.4,102.1c0,0-1.9-0.3-3.6-1.8c-1.7-1.5-1.3-4,0.5-4.6c1.8-0.5,3.3,1.3,3.3,1.3l0.8-8.8             c0.1-1.3,1.2-2.2,2.6-2.2l13.4,0.4c1.4,0,2.4,1.1,2.4,2.4l-0.1,8.5c0.1,0,3.1-3,4.5-0.4c2.1,3.9-4.4,6-4.4,6             s-3.6,7.7-9.2,7.6C140.2,110.3,136.4,102.1,136.4,102.1z"></path><ellipse cx="141.1" cy="92.5" fill="#4d1e33" rx="3.2" ry=".5" transform="rotate(-.992 141.114 92.472) scale(.99995)"></ellipse><ellipse cx="151.7" cy="92.7" fill="#4d1e33" rx=".5" ry="3.1" transform="rotate(-87.587 151.678 92.746)"></ellipse><path fill="#d08487" d="M145.9 110.4c-1.6-.1-3.2-.6-4.6-1.5-.2-.1-.2-.3-.1-.5l0 0c.1-.1.3-.2.5-.1 2.8 1.8 6.4 1.9 9.2.1.2-.1.4-.1.5.1.1.2.1.4-.1.5C149.6 110 147.8 110.5 145.9 110.4zM135.5 98.7c-.3-1.1-1.8-1.4-1.8-1.4 0 0-.1 0-.1.1 0 0 0 .1.1.1 0 0 1.4.2 1.7 1.2 0 .1.1.3.1.4-.3.1-1.1.5-1.4.3-.4-.2-.4-.5-.4-.5 0 0 0-.1-.1-.1 0 0-.1 0-.1.1 0 0 0 .5.5.7.1 0 .2.1.3.1.4 0 1-.3 1.2-.3.1.8-.1 1.5-.1 1.5 0 0 0 .1.1.1 0 0 0 0 0 0 0 0 .1 0 .1-.1C135.5 100.8 135.8 99.8 135.5 98.7zM157.3 98.7c.3-1.1 1.8-1.4 1.8-1.4 0 0 .1 0 .1.1 0 0 0 .1-.1.1 0 0-1.4.2-1.7 1.2 0 .1-.1.3-.1.4.3.1 1.1.5 1.4.3.4-.2.4-.5.4-.5 0 0 0-.1.1-.1 0 0 .1 0 .1.1 0 0 0 .5-.5.7-.1 0-.2.1-.3.1-.4 0-1-.3-1.2-.3-.1.8.1 1.5.1 1.5 0 0 0 .1-.1.1 0 0 0 0 0 0 0 0-.1 0-.1-.1C157.3 100.8 157 99.8 157.3 98.7z"></path><path fill="#77434e" d="M156.8,83.4c2.9,0.1,5,2.8,4.3,5.7c0,0,0,0,0,0c0,0.1-0.1,0.3-0.3,0.3c-1,0.5-1.6,1.4-1.6,2.5             l-0.1,2.6c0,0-3-0.9-3.2-2.5c-0.2-1.6-0.2-1.6-0.2-1.6s-5.2,0.7-9-0.7c-3.8-1.4-5.6-3.1-5.6-3.1             c-0.6,1.3-1.9,2.3-3.5,2.4l-0.3,0l-1.3,4l-1.3,0c0,0-0.2-1.4-0.5-3.1c-0.5-3.8,2.5-7.1,6.3-7L156.8,83.4z"></path><circle cx="151.8" cy="97.7" r=".1" fill="#cf7492"></circle><circle cx="151.1" cy="98.1" r=".1" fill="#cf7492"></circle><circle cx="151.6" cy="98.4" r=".1" fill="#cf7492"></circle><circle cx="152.7" cy="98.2" r=".1" fill="#cf7492"></circle><circle cx="152.4" cy="99.1" r=".1" fill="#cf7492"></circle><circle cx="151.8" cy="99.9" r=".1" fill="#cf7492"></circle><circle cx="151.1" cy="99.1" r=".1" fill="#cf7492"></circle><circle cx="140" cy="97.7" r=".1" fill="#cf7492"></circle><circle cx="140.7" cy="98.1" r=".1" fill="#cf7492"></circle><circle cx="140.2" cy="98.4" r=".1" fill="#cf7492"></circle><circle cx="139.1" cy="98.2" r=".1" fill="#cf7492"></circle><circle cx="139.4" cy="99.1" r=".1" fill="#cf7492"></circle><circle cx="140" cy="99.9" r=".1" fill="#cf7492"></circle><circle cx="140.7" cy="99.1" r=".1" fill="#cf7492"></circle><path fill="#74444a" d="M133.5,88.6c-0.6-0.5-1.1-1.5-1.1-2.4c0-0.6,0.2-1.2,0.6-1.5l0.2-0.2c0.9-0.8,2.4-1.9,2.9-2.9           c0.7-1.4,2.9-3.3,5.7-4.2c2-0.6,5-0.9,8.3,0.9l-0.2,0.3c-3.3-1.8-6.2-1.5-8.1-0.9c-2.7,0.8-4.8,2.6-5.5,4           c-0.5,1.1-2,2.3-3,3.1l-0.2,0.2c-0.5,0.4-0.5,0.9-0.5,1.3c0,0.9,0.5,1.8,1,2.1L133.5,88.6z"></path><path fill="#fff" d="M139.4,96.3c0,0,0.6,0.8,1.9,0.7s1.4-0.5,1.8-0.5s-0.1-0.8-0.9-0.9C140.2,95.1,139.4,96.3,139.4,96.3z"></path><path fill="#2b1d30" d="M143.2,96.3L143.2,96.3c0.2,0,0.3-0.2,0.1-0.3c-0.3-0.3-0.9-0.6-1.8-0.6c-1.7-0.1-2.4,0.9-2.4,0.9         l0.2,0.1c0,0,0.8-0.7,1.8-0.8C142.2,95.4,143.2,96.3,143.2,96.3z"></path><path fill="#2b1d30" d="M140.2,96c0,0.5,0.5,0.9,1.1,0.9s1.1-0.4,1.1-0.8c0-0.5-0.5-0.6-1.1-0.6C140.7,95.4,140.2,95.5,140.2,96         z"></path><circle cx="141.8" cy="96.1" r=".2" fill="#fff" transform="rotate(-88.744 141.779 96.065) scale(1.00004)"></circle><path fill="#fff" d="M152.9,96.3c0,0-0.6,0.8-1.9,0.7c-1.3,0-1.4-0.5-1.8-0.5s0.1-0.8,0.9-0.9         C152.1,95.1,152.9,96.3,152.9,96.3z"></path><path fill="#2b1d30" d="M149.1,96.3L149.1,96.3c-0.2,0-0.3-0.2-0.1-0.3c0.3-0.3,0.9-0.6,1.8-0.6c1.7-0.1,2.4,0.9,2.4,0.9         l-0.2,0.1c0,0-0.8-0.7-1.8-0.8C150.1,95.4,149.1,96.3,149.1,96.3z"></path><path fill="#2b1d30" d="M152,96c0,0.5-0.5,0.9-1.1,0.9s-1.1-0.4-1.1-0.8s0.5-0.6,1.1-0.6C151.5,95.4,152,95.5,152,96z"></path><circle cx="150.5" cy="96.1" r=".2" fill="#fff" transform="rotate(-1.255 150.484 96.068) scale(1.00004)"></circle><g><polygon fill="#f8ad9c" points="141.3 112.9 136.2 119.7 138.1 123.5 139.8 125.4 152 125.7 153.8 123 156.1 119.7 151.4 112.9"></polygon></g><g><path fill="#fff" d="M151.1,98.8c-0.2-0.1-0.4-0.1-0.6-0.2c-2.7-0.9-5.6-0.9-8.3,0c-0.2,0.1-0.4,0.1-0.6,0.2         c-0.9,0.3-1.7,0.5-2.4,0.6c-0.8,0.1-1.4,0.9-1.3,1.7l0.4,3.7c0,0.3,0.1,0.6,0.3,0.8c0.4,0.7,1.4,2,3.1,3.2c0,0,0,0,0.1,0.1         c2.8,2,6.6,2,9.4,0c0,0,0,0,0.1-0.1c1.6-1.2,2.7-2.5,3.1-3.2c0.2-0.3,0.3-0.6,0.4-1l0.2-3.6c0.1-0.8-0.5-1.6-1.4-1.7         C152.8,99.3,152,99.2,151.1,98.8z"></path><line x1="154.1" x2="156" y1="100.6" y2="95.9" fill="none" stroke="#fff" stroke-linecap="round" stroke-linejoin="round" stroke-miterlimit="10" stroke-width=".323"></line><line x1="138.7" x2="136.2" y1="100.6" y2="96.8" fill="none" stroke="#fff" stroke-linecap="round" stroke-linejoin="round" stroke-miterlimit="10" stroke-width=".323"></line><line x1="154.3" x2="156" y1="105.1" y2="101.9" fill="none" stroke="#fff" stroke-linecap="round" stroke-linejoin="round" stroke-miterlimit="10" stroke-width=".323"></line><line x1="138.7" x2="136.4" y1="105.1" y2="102.4" fill="none" stroke="#fff" stroke-linecap="round" stroke-linejoin="round" stroke-miterlimit="10" stroke-width=".323"></line></g><g><polygon fill="#434fa1" points="175.7 82.1 175.7 80.8 148.3 70 114 78.7 114 80.6 148.3 71.5"></polygon><polygon fill="#5e6db2" points="159.1 83.9 175.7 82.1 148.3 71.5 114 80.6 129.8 83.1"></polygon><path fill="#434fa1" d="M149,77.3h-2.1h-2.1c-4.4,0-9,2.6-12.5,6.2l0,0v5c0,0.8,0.9,1.2,1.5,0.6c3.2-3,7.1-4.5,11-4.6       c0.5,0,2.1-0.1,2.1-0.1s1.6,0.1,2.1,0.1c3.9,0.1,7.8,1.6,11,4.6c0.6,0.5,1.5,0.1,1.5-0.6v-5C158,79.9,153.4,77.3,149,77.3z"></path></g><path fill="none" stroke="#fbb325" stroke-miterlimit="10" stroke-width=".646" d="M163.7,76.1c0,0,3.6,5.2,3.9,14.8c0.4,9.6,0.4,9.6,0.4,9.6"></path><path fill="#fbb325" d="M168.5,101.8l-0.3-0.1c-0.2-0.1-0.4-0.1-0.6,0l-0.3,0.1c-0.5,0.2-1-0.2-0.9-0.7l0.1-0.3      c0-0.2,0-0.4-0.2-0.6l-0.2-0.2c-0.4-0.4-0.1-1.1,0.4-1.1l0.3,0c0.2,0,0.4-0.1,0.5-0.3l0.1-0.3c0.3-0.5,1-0.5,1.2,0.1l0.1,0.3      c0.1,0.2,0.3,0.3,0.5,0.4l0.3,0.1c0.5,0.1,0.7,0.8,0.3,1.1l-0.2,0.2c-0.2,0.1-0.2,0.4-0.2,0.6l0,0.3      C169.5,101.7,168.9,102.1,168.5,101.8z"></path><g><path fill="#dd9e91" d="M221.2,73.4c0,0-2.3-2.5-5.5-2.7s-8.6-0.9-10.2-2.6c-1.7-1.7-1.4-8.4,7.4-4.4         C221.8,67.7,221.2,73.4,221.2,73.4z"></path><path fill="#f8ad9c" d="M204.1,65.2c0.4,1.1,3.9,2.8,6.3,3.3c2.4,0.5,3.3-2.6,3.3-2.6s0,0,0.9,1.1s5,7,5,7l-2.2,22.1          c5.5,1.2,10.8,2.8,16,4.7l0.4-14.3c0.2-8.3-2.8-16.4-8.3-22.6c0,0-0.1-0.1-0.1-0.1c-3.7-4-10.4-9.7-12.7-11.7          c-2.3-2.1-10.5,7.3-10.4,8.8c0.1,1.5,2,2.9,2,2.9S203.6,64.2,204.1,65.2z"></path><path fill="none" stroke="#d08487" stroke-linecap="round" stroke-linejoin="round" stroke-miterlimit="10" stroke-width=".646" d="M204.1 63.7c0 0 3.4-5.8 6-7.7 1.4-1.1 2.2-1.1 2.2-1.1M213.1 58.1c0 0-4.1 4.4-5 6.1-.7 1.4 0 3.4 0 3.4"></path><path fill="#d08487" d="M213.9,65.4l-1.1-1.2l0.2-2.3l-0.6,2.5l-0.9,0.2l-0.6-1.8l0,2.1l-1.2,0.8l2-0.8c0,0,0.9-0.1,1.3,0.2          S213.9,65.4,213.9,65.4z"></path><path fill="#dd9e91" d="M68.3,73.4c0,0,2.3-2.5,5.5-2.7c3.2-0.3,8.6-0.9,10.2-2.6c1.7-1.7,1.4-8.4-7.4-4.4         S68.3,73.4,68.3,73.4z"></path><path fill="#f8ad9c" d="M85.5,65.2c-0.4,1.1-3.9,2.8-6.3,3.3c-2.4,0.5-3.3-2.6-3.3-2.6s0,0-0.9,1.1c-0.9,1.1-5,7-5,7l2.2,22.1          c-5.5,1.2-10.8,2.8-16,4.7l-0.4-14.3c-0.2-8.3,2.8-16.4,8.3-22.6c0,0,0.1-0.1,0.1-0.1C67.9,59.7,74.6,54,77,52          c2.3-2.1,10.5,7.3,10.4,8.8c-0.1,1.5-2,2.9-2,2.9S85.9,64.2,85.5,65.2z"></path><path fill="none" stroke="#d08487" stroke-linecap="round" stroke-linejoin="round" stroke-miterlimit="10" stroke-width=".646" d="M85.4 63.7c0 0-3.4-5.8-6-7.7-1.4-1.1-2.2-1.1-2.2-1.1M76.5 58.1c0 0 4.1 4.4 5 6.1.7 1.4 0 3.4 0 3.4"></path><path fill="#d08487" d="M75.6,65.4l1.1-1.2l-0.2-2.3l0.6,2.5l0.9,0.2l0.6-1.8l0,2.1l1.2,0.8l-2-0.8c0,0-0.9-0.1-1.3,0.2          S75.6,65.4,75.6,65.4z"></path><path fill="#f07c74" d="M154.4,117.3c-2.4,3.2-12.7,3.4-16.2-0.4l-0.4,0.6l-2,0.9v61.8l23.3-0.4v-60.7l-4.3-1.7       C154.8,117.4,154.4,117.3,154.4,117.3z"></path><path fill="#5269b0" d="M240.7,130.3l-3.1-48h-25.3l-4.1,38.9l-27.9,3l-25.5-6.7l-8.1,27.8h-1.8l-7.1-27.8l-27.1,6.9l-29.2-3.1      l-4.1-38.9H52.1l-3.1,48c-0.6,9.3,5.7,17.7,14.8,19.7l43,9.4l-6.3,73.1h43.1h4.4H191l-6.3-73.5l41.1-9      C235,147.9,241.3,139.6,240.7,130.3z"></path><path fill="none" stroke="#fff" stroke-linecap="round" stroke-linejoin="round" stroke-miterlimit="10" stroke-width=".646" d="M158.7,118.8c-3.7,10.3-7.1,20.4-11,30.8l-4.3,0c-3.4-10.1-6.6-20.5-9.8-30.8"></path><polygon points="237.9 87.3 211.8 87.3 211.9 87 237.9 87"></polygon><line x1="77.9" x2="51.8" y1="87.2" y2="87.2" fill="#fff"></line><polygon points="51.8 87.3 77.9 87.3 77.9 87 51.8 87"></polygon></g><path fill="#455794" d="M184.7 158.9c-2.8-.7-5.5 1.6-5.1 4.5 1.1 9 2.6 25.3-.9 31.1-4.8 8.2 2.5 16.6 2.1 21.3-.3 4.7 0 16.6 0 16.6H191L184.7 158.9 184.7 158.9zM108.5 232.4l-1-42.1c0-2.1-3.2-2.2-3.4-.1l-3.6 42.2H108.5z"></path><g><path fill="#eb008b" d="M250.1,149.1c0,0,0,1.4-0.7,2.6c-0.6,1.3-2.3,2.4-2.3,2.4l1.7,2c0,0,0.6-0.6,1.7-2c1.1-1.4,1-4,1-4        L250.1,149.1z"></path><path fill="#009680" d="M238.7,117.3l-1.5-1.1c0,0,0,1.4-0.7,2.6c-0.6,1.3-2.3,2.4-2.3,2.4l1.7,2c0,0,0.6-0.6,1.7-2        S238.7,117.3,238.7,117.3z"></path><path fill="#fff" d="M165.8,108.4c0.2-0.2,0.8-0.8,1.6-1.9c1.1-1.4,1-4,1-4l-1.5-1.1c0,0,0,1.4-0.7,2.6        c-0.6,1.3-2.3,2.4-2.3,2.4l1.6,1.8L165.8,108.4C165.7,108.5,165.7,108.5,165.8,108.4z"></path><path fill="#f07c74" d="M233.4,192.4l1.7-2c0,0-1.7-1.1-2.3-2.4c-0.6-1.3-0.7-2.6-0.7-2.6l-1.5,1.1c0,0-0.1,2.5,1,4        C232.8,191.8,233.4,192.4,233.4,192.4z"></path><path fill="#8ad4ea" d="M247.1,222.9c-0.6-1.3-0.7-2.6-0.7-2.6l-1.5,1.1c0,0-0.1,2.5,1,4c1.1,1.4,1.7,2,1.7,2l1.7-2        C249.5,225.3,247.7,224.1,247.1,222.9z"></path><path fill="#d2434a" d="M190.1,101c-0.6-1.3-0.7-2.6-0.7-2.6l-1.5,1.1c0,0-0.1,2.5,1,4c1.1,1.4,1.7,2,1.7,2l1.7-2        C192.4,103.4,190.7,102.3,190.1,101z"></path></g><g><path fill="#eb008b" d="M35.4,149.1c0,0,0,1.4,0.7,2.6c0.6,1.3,2.3,2.4,2.3,2.4l-1.7,2c0,0-0.6-0.6-1.7-2c-1.1-1.4-1-4-1-4        L35.4,149.1z"></path><path fill="#009680" d="M46.8,117.3l1.5-1.1c0,0,0,1.4,0.7,2.6c0.6,1.3,2.3,2.4,2.3,2.4l-1.7,2c0,0-0.6-0.6-1.7-2        C46.7,119.8,46.8,117.3,46.8,117.3z"></path><path fill="#fff" d="M119.8,108.4c-0.2-0.2-0.8-0.8-1.6-1.9c-1.1-1.4-1-4-1-4l1.5-1.1c0,0,0,1.4,0.7,2.6        c0.6,1.3,2.3,2.4,2.3,2.4l-1.6,1.8L119.8,108.4C119.8,108.5,119.8,108.5,119.8,108.4z"></path><path fill="#f07c74" d="M52.1,192.4l-1.7-2c0,0,1.7-1.1,2.3-2.4c0.6-1.3,0.7-2.6,0.7-2.6l1.5,1.1c0,0,0.1,2.5-1,4        C52.7,191.8,52.1,192.4,52.1,192.4z"></path><path fill="#8ad4ea" d="M38.4,222.9c0.6-1.3,0.7-2.6,0.7-2.6l1.5,1.1c0,0,0.1,2.5-1,4c-1.1,1.4-1.7,2-1.7,2l-1.7-2        C36,225.3,37.8,224.1,38.4,222.9z"></path><path fill="#d2434a" d="M95.4,101c0.6-1.3,0.7-2.6,0.7-2.6l1.5,1.1c0,0,0.1,2.5-1,4c-1.1,1.4-1.7,2-1.7,2l-1.7-2        C93.1,103.4,94.8,102.3,95.4,101z"></path></g><line x1="283.1" x2="26.1" y1="232.4" y2="232.4" fill="none" stroke="#000425" stroke-linecap="round" stroke-linejoin="round" stroke-miterlimit="10" stroke-width=".646"></line></svg>