<svg xmlns="http://www.w3.org/2000/svg" data-name="Kid avatar" viewBox="0 0 64 64" id="girl"><path fill="#4a80aa" d="M37.85 42a12.01 12.01 0 0 1 11.72 11.4L50 61H14l.43-7.6A12.01 12.01 0 0 1 26.15 42Z"></path><path fill="#85d5e3" d="M39 39.5v4.25a3.74 3.74 0 0 1-6.75 2.23 3.74 3.74 0 0 1-6.75-2.23V39.5Z"></path><path fill="#ea348b" d="M51 54h-6v-4h6z"></path><path fill="#3e3d42" d="M50 54h-4l-1 7h6l-1-7zM50 21a18 18 0 0 0-36 0l.967 16.433L14 50h4l3.692-12h20.616L46 50h4l-.967-12.567Z"></path><path fill="#ea348b" d="M13 50h6v4h-6z"></path><path fill="#ffddce" d="M18 18v12a14 14 0 0 0 28 0V19h-2a6 6 0 0 1-6-6v-1a6 6 0 0 1-6 6Z"></path><path fill="#3e3d42" d="M14 54h4l1 7h-6l1-7zM26 29a1 1 0 0 0 1-1v-2a1 1 0 0 0-2 0v2a1 1 0 0 0 1 1zm12-4a1 1 0 0 0-1 1v2a1 1 0 0 0 2 0v-2a1 1 0 0 0-1-1zm-6 12c-2.71 0-5-1.374-5-3h-2c0 2.8 3.075 5 7 5s7-2.2 7-5h-2c0 1.626-2.29 3-5 3z"></path><circle cx="32" cy="51" r="1" fill="#b4cdf8"></circle><circle cx="32" cy="55" r="1" fill="#b4cdf8"></circle></svg>