<svg xmlns="http://www.w3.org/2000/svg" enable-background="new 0 0 512 512" viewBox="0 0 512 512" id="lesson"><path fill="#5C98E6" d="M468,392H44c-11.046,0-20-8.954-20-20V84c0-11.046,8.954-20,20-20h424c11.046,0,20,8.954,20,20v288
	C488,383.046,479.046,392,468,392z"></path><path fill="#E6AC5C" d="M280,96c-13.255,0-24,10.745-24,24c0-13.255-10.745-24-24-24H96v184h136c13.255,0,24,10.745,24,24
	c0-13.255,10.745-24,24-24h136V96H280z"></path><path fill="#594324" d="M256,296c-4.418,0-8-3.582-8-8V120c0-4.418,3.582-8,8-8s8,3.582,8,8v168C264,292.418,260.418,296,256,296z"></path><polygon fill="#5C98E6" points="312 456 200 456 216 376 296 376"></polygon><path fill="#4774B0" d="M350 448H162c-5.523 0-10 4.477-10 10v20c0 5.523 4.477 10 10 10h188c5.523 0 10-4.477 10-10v-20C360 452.477 355.523 448 350 448zM468 392H44c-11.046 0-20-8.954-20-20v-28h464v28C488 383.046 479.046 392 468 392z"></path><path fill="#594324" d="M384 128h-80c-4.418 0-8-3.582-8-8s3.582-8 8-8h80c4.418 0 8 3.582 8 8S388.418 128 384 128zM384 152h-96c-4.418 0-8-3.582-8-8s3.582-8 8-8h96c4.418 0 8 3.582 8 8S388.418 152 384 152zM384 176h-96c-4.418 0-8-3.582-8-8s3.582-8 8-8h96c4.418 0 8 3.582 8 8S388.418 176 384 176zM384 200h-56c-4.418 0-8-3.582-8-8s3.582-8 8-8h56c4.418 0 8 3.582 8 8S388.418 200 384 200zM384 224h-40c-4.418 0-8-3.582-8-8s3.582-8 8-8h40c4.418 0 8 3.582 8 8S388.418 224 384 224zM384 248h-40c-4.418 0-8-3.582-8-8s3.582-8 8-8h40c4.418 0 8 3.582 8 8S388.418 248 384 248zM208 128h-80c-4.418 0-8-3.582-8-8s3.582-8 8-8h80c4.418 0 8 3.582 8 8S212.418 128 208 128zM224 152h-96c-4.418 0-8-3.582-8-8s3.582-8 8-8h96c4.418 0 8 3.582 8 8S228.418 152 224 152zM224 176h-96c-4.418 0-8-3.582-8-8s3.582-8 8-8h96c4.418 0 8 3.582 8 8S228.418 176 224 176zM184 200h-56c-4.418 0-8-3.582-8-8s3.582-8 8-8h56c4.418 0 8 3.582 8 8S188.418 200 184 200zM168 224h-40c-4.418 0-8-3.582-8-8s3.582-8 8-8h40c4.418 0 8 3.582 8 8S172.418 224 168 224zM168 248h-40c-4.418 0-8-3.582-8-8s3.582-8 8-8h40c4.418 0 8 3.582 8 8S172.418 248 168 248z"></path><circle cx="256" cy="248" r="64" fill="#E65C5E"></circle><polygon fill="#263E5D" points="232 216 288 248 232 280"></polygon><path fill="#263E5D" d="M304 376h-96c-4.418 0-8-3.582-8-8s3.582-8 8-8h96c4.418 0 8 3.582 8 8S308.418 376 304 376zM392 376h-48c-4.418 0-8-3.582-8-8s3.582-8 8-8h48c4.418 0 8 3.582 8 8S396.418 376 392 376zM168 376h-48c-4.418 0-8-3.582-8-8s3.582-8 8-8h48c4.418 0 8 3.582 8 8S172.418 376 168 376z"></path></svg>