<svg xmlns="http://www.w3.org/2000/svg" enable-background="new 0 0 512 512" viewBox="0 0 512 512" id="video-lesson"><path fill="#6d6d6d" d="M345.037,490.31H166.982h0c19.507-8.182,32.199-27.27,32.199-48.424v-16.251h113.656v16.251C312.837,463.04,325.53,482.128,345.037,490.31L345.037,490.31z"></path><path fill="#5b5b5b" d="M356.989,490.311h-201.96c-4.675,0-8.466,3.79-8.466,8.465c0,4.675,3.791,8.466,8.466,8.466h201.96c4.675,0,8.466-3.791,8.466-8.466C365.456,494.1,361.665,490.311,356.989,490.311z"></path><path fill="#6d6d6d" d="M511.967,89.349v278.596H0.011V89.349c0-11.389,9.271-20.662,20.718-20.662h470.578C502.694,68.687,511.967,77.959,511.967,89.349z"></path><path fill="#5b5b5b" d="M0.029,367.932v50.761c0,11.433,9.268,20.7,20.701,20.7h470.558c11.433,0,20.701-9.267,20.701-20.7v-50.761H0.029z"></path><path fill="#5b5b5b" d="M0.029,367.932v50.761c0,11.433,9.268,20.7,20.701,20.7h470.558c11.433,0,20.701-9.267,20.701-20.7v-50.761H0.029z"></path><path d="M511.989,89.327v329.355c0,11.438-9.259,20.697-20.697,20.697h-48.911c11.438,0,20.697-9.259,20.697-20.697V89.327c0-11.383-9.314-20.642-20.697-20.642h48.911C502.676,68.685,511.989,77.944,511.989,89.327z" opacity=".08"></path><path fill="#f2f0f0" d="M231.296 403.68c0 7.217-5.856 13.073-13.117 13.073-7.217 0-13.073-5.856-13.073-13.073 0-7.262 5.856-13.117 13.073-13.117C225.44 390.563 231.296 396.418 231.296 403.68zM269.104 403.68c0 7.217-5.856 13.073-13.117 13.073-7.217 0-13.073-5.856-13.073-13.073 0-7.262 5.856-13.117 13.073-13.117C263.249 390.563 269.104 396.418 269.104 403.68zM306.913 403.68c0 7.217-5.856 13.073-13.117 13.073-7.217 0-13.073-5.856-13.073-13.073 0-7.262 5.856-13.117 13.073-13.117C301.057 390.563 306.913 396.418 306.913 403.68z"></path><rect width="468.406" height="255.663" x="21.797" y="90.471" fill="#ffce29"></rect><path fill="#fff" d="M33.292,387.95v21.211c0,3.829-3.104,6.933-6.933,6.933h0c-3.829,0-6.933-3.104-6.933-6.933V387.95c0-3.829,3.104-6.933,6.933-6.933h0C30.188,381.017,33.292,384.121,33.292,387.95z" opacity=".4"></path><path fill="#f2f0f0" d="M256.03,36.54v273.643c0-17.539-14.225-31.764-31.764-31.764H59.357c-6.69,0-12.055-5.424-12.055-12.055V16.83c0-6.63,5.364-12.055,12.055-12.055h164.909C241.806,4.775,256.03,19,256.03,36.54z"></path><path d="M256.055,36.566v273.637c0-13.453-8.442-25-20.316-29.629V36.566c0-17.592-14.216-31.808-31.754-31.808h20.261C241.785,4.758,256.055,18.973,256.055,36.566z" opacity=".08"></path><path fill="#f96464" d="M222.159,104.316c0,37.711-30.52,68.231-68.151,68.231s-68.152-30.52-68.152-68.231c0-37.631,30.52-68.152,68.152-68.152S222.159,66.685,222.159,104.316z"></path><path fill="#f2f0f0" d="M464.698,16.83v249.533c0,6.631-5.364,12.055-12.055,12.055H287.734c-17.54,0-31.704,14.225-31.704,31.764V36.54c0-17.54,14.165-31.764,31.704-31.764h164.909C459.334,4.775,464.698,10.2,464.698,16.83z"></path><path d="M464.713,16.849v249.508c0,6.645-5.392,12.037-12.092,12.037h-16.013c6.7,0,12.092-5.392,12.092-12.037V16.849c0-6.645-5.392-12.091-12.092-12.091h16.013C459.321,4.758,464.713,10.204,464.713,16.849z" opacity=".08"></path><polygon fill="#fff" points="184.779 104.396 137.309 139.097 137.309 69.694"></polygon><path fill="#e5e3e5" d="M145.53 212.342H81.129c-2.208 0-3.995-1.787-3.995-3.995 0-2.208 1.787-3.995 3.995-3.995h64.401c2.208 0 3.995 1.787 3.995 3.995C149.525 210.555 147.738 212.342 145.53 212.342zM117.028 240.844H81.129c-2.208 0-3.995-1.787-3.995-3.995s1.787-3.995 3.995-3.995h35.899c2.208 0 3.995 1.787 3.995 3.995S119.236 240.844 117.028 240.844zM222.157 240.657h-82.175c-2.208 0-3.995-1.787-3.995-3.995 0-2.208 1.787-3.995 3.995-3.995h82.175c2.208 0 3.995 1.787 3.995 3.995C226.152 238.87 224.365 240.657 222.157 240.657zM222.157 212.342h-55.529c-2.208 0-3.995-1.787-3.995-3.995 0-2.208 1.787-3.995 3.995-3.995h55.529c2.208 0 3.995 1.787 3.995 3.995C226.152 210.555 224.365 212.342 222.157 212.342zM325.749 225.309H289.85c-2.208 0-3.995-1.787-3.995-3.995s1.787-3.995 3.995-3.995h35.899c2.208 0 3.995 1.787 3.995 3.995S327.957 225.309 325.749 225.309zM430.87 225.122h-82.167c-2.208 0-3.995-1.787-3.995-3.995s1.787-3.995 3.995-3.995h82.167c2.208 0 3.995 1.787 3.995 3.995S433.079 225.122 430.87 225.122zM325.749 168.489H289.85c-2.208 0-3.995-1.787-3.995-3.995s1.787-3.995 3.995-3.995h35.899c2.208 0 3.995 1.787 3.995 3.995S327.957 168.489 325.749 168.489zM430.87 168.305h-82.167c-2.208 0-3.995-1.787-3.995-3.995 0-2.208 1.787-3.995 3.995-3.995h82.167c2.208 0 3.995 1.787 3.995 3.995C434.865 166.519 433.079 168.305 430.87 168.305zM325.749 111.672H289.85c-2.208 0-3.995-1.787-3.995-3.995s1.787-3.995 3.995-3.995h35.899c2.208 0 3.995 1.787 3.995 3.995S327.957 111.672 325.749 111.672zM430.87 111.488h-82.167c-2.208 0-3.995-1.787-3.995-3.995 0-2.208 1.787-3.995 3.995-3.995h82.167c2.208 0 3.995 1.787 3.995 3.995C434.865 109.702 433.079 111.488 430.87 111.488zM354.251 196.807H289.85c-2.208 0-3.995-1.787-3.995-3.995s1.787-3.995 3.995-3.995h64.401c2.208 0 3.995 1.787 3.995 3.995S356.459 196.807 354.251 196.807zM430.87 196.807h-55.522c-2.208 0-3.995-1.787-3.995-3.995s1.787-3.995 3.995-3.995h55.522c2.208 0 3.995 1.787 3.995 3.995S433.079 196.807 430.87 196.807zM354.251 139.987H289.85c-2.208 0-3.995-1.787-3.995-3.995s1.787-3.995 3.995-3.995h64.401c2.208 0 3.995 1.787 3.995 3.995S356.459 139.987 354.251 139.987zM430.87 139.987h-55.522c-2.208 0-3.995-1.787-3.995-3.995s1.787-3.995 3.995-3.995h55.522c2.208 0 3.995 1.787 3.995 3.995S433.079 139.987 430.87 139.987zM325.749 54.855H289.85c-2.208 0-3.995-1.787-3.995-3.995 0-2.208 1.787-3.995 3.995-3.995h35.899c2.208 0 3.995 1.787 3.995 3.995C329.744 53.068 327.957 54.855 325.749 54.855zM430.87 54.668h-82.167c-2.208 0-3.995-1.787-3.995-3.995 0-2.208 1.787-3.995 3.995-3.995h82.167c2.208 0 3.995 1.787 3.995 3.995C434.865 52.881 433.079 54.668 430.87 54.668zM354.251 83.17H289.85c-2.208 0-3.995-1.787-3.995-3.995s1.787-3.995 3.995-3.995h64.401c2.208 0 3.995 1.787 3.995 3.995S356.459 83.17 354.251 83.17zM430.87 83.17h-55.522c-2.208 0-3.995-1.787-3.995-3.995s1.787-3.995 3.995-3.995h55.522c2.208 0 3.995 1.787 3.995 3.995S433.079 83.17 430.87 83.17z"></path></svg>