<svg xmlns="http://www.w3.org/2000/svg" xmlns:xlink="http://www.w3.org/1999/xlink" width="1200" height="1600" viewBox="0 0 1200 1600"><defs><polygon id="a" points="67.052 67.278 54 42.731 184.957 52.654 330.763 26 330.455 40.147 320.055 44.47 319.813 55.586 306.702 55.3 306.329 72.479 289.472 72.112 285.44 85.167 270.456 84.842 261.274 97.785 245.909 93.407 241.051 101.389 225.13 101.043 224.933 110.137 203.591 100.574 197.774 109.547 188.607 100.249 179.044 109.14 161.448 99.658 150.012 108.509 138.036 99.15 129.607 98.966 120.418 90.679 116.496 98.681 100.949 81.157 90.559 84.975 77.408 64.975"/></defs><g fill="none" fill-rule="evenodd" transform="translate(358 121)"><g fill-rule="nonzero" transform="translate(45 852)"><path fill="#000" d="M120.746216 479.684891C136.588222 489.766168 157.603196 485.096173 167.684473 469.254167 171.118172 463.858353 172.45079 459.320424 173.412392 453.677116 173.83791 451.179901 174.137966 448.496589 174.360816 445.487787L174.419715 444.65903C174.771901 439.492457 174.929959 433.05625 174.926197 425.262585L174.916012 422.096104 174.891019 418.975695C174.752993 405.436072 174.21081 388.36754 173.316352 368.309479L173.130403 364.208229C171.446687 327.659239 168.685381 282.784279 165.91086 244.54024 164.552151 225.81178 148.268283 211.730814 129.539823 213.089522 110.811362 214.448231 96.7303963 230.732099 98.0891049 249.46056L98.6964254 257.942574 99.1501715 264.425C101.563889 299.242207 103.861829 337.747479 105.295397 369.371383L105.623154 376.835933 105.843113 382.16263C106.529807 399.280546 106.90317 413.607752 106.925098 424.527581L106.925091 426.503585 106.913273 428.912045C106.876501 433.578078 106.761424 437.331186 106.577152 440.034465L106.508233 440.957146C102.084185 455.239809 107.523871 471.270671 120.746216 479.684891zM261.746216 436.684891C277.588222 446.766168 298.603196 442.096173 308.684473 426.254167 312.118172 420.858353 313.45079 416.320424 314.412392 410.677116 314.83791 408.179901 315.137966 405.496589 315.360816 402.487787L315.419715 401.65903C315.771901 396.492457 315.929959 390.05625 315.926197 382.262585L315.916012 379.096104 315.891019 375.975695C315.752993 362.436072 315.21081 345.36754 314.316352 325.309479L314.130403 321.208229C312.446687 284.659239 309.685381 239.784279 306.91086 201.54024 305.552151 182.81178 289.268283 168.730814 270.539823 170.089522 251.811362 171.448231 237.730396 187.732099 239.089105 206.46056L239.696425 214.942574 240.150172 221.425C242.563889 256.242207 244.861829 294.747479 246.295397 326.371383L246.623154 333.835933 246.843113 339.16263C247.529807 356.280546 247.90317 370.607752 247.925098 381.527581L247.925091 383.503585 247.913273 385.912045C247.876501 390.578078 247.761424 394.331186 247.577152 397.034465L247.508233 397.957146C243.084185 412.239809 248.523871 428.270671 261.746216 436.684891z"/><polygon fill="#2B2B2B" points="60.987 32.416 183.854 43.791 183.854 392 94.854 392"/><polygon fill="#1B1919" points="95 391 92 371 184 371 184 391"/><ellipse cx="201.297" cy="60.925" fill="#2B2B2B" rx="118.297" ry="60.925"/><polygon fill="#2B2B2B" points="203 44.602 328.913 44.602 327.913 394.31 236.707 394.31"/><polygon fill="#1B1919" points="235 394 232 374 330 374 330 394"/><path fill="#272727" d="M1.17658245,484.4204 C-0.701417553,479.7704 0.650082447,473.4104 1.70168245,471.6804 C2.75338245,469.9404 130.448982,461.9804 130.448982,461.9804 C151.643982,460.2404 193.654982,452.9704 196.558982,465.5004 C200.149982,481.0004 199.985982,484.5004 197.537982,496.5004 C193.620982,500.5004 153.999982,504.0004 141.152982,501.0004 C141.152982,494.0004 140.152982,489.5004 140.152982,489.5004 C140.152982,489.5004 132.991982,494.0404 124.590982,496.0004 C107.455982,500.0004 104.174982,504.0004 51.1011824,504.0004 C8.53398245,500.0004 5.38048245,494.8104 1.17658245,484.4204 Z"/><path fill="#563D2A" d="M139.278982,417.0004 C149.921982,417.1404 166.170982,413.6404 175.024982,401.3704 C175.802982,400.2904 177.394982,400.1204 178.300982,401.0904 C186.262982,409.6504 181.104982,404.7804 184.303982,419.5104 C187.459982,434.0504 190.125982,431.9704 193.282982,445.4704 C195.467982,454.8204 202.546982,476.6304 193.282982,476.6304 L151.027982,476.6304 C141.030982,476.6304 127.528982,488.2404 94.2379824,491.5004 C38.9754824,496.9204 25.4712824,489.5004 14.4370824,486.0004 C-10.6691176,478.0404 2.07178245,459.8204 14.4370824,454.0004 C32.5512824,445.4704 58.5119824,439.0604 71.7169824,432.0004 C81.9999824,426.5004 85.5309824,424.7904 90.8109824,419.0004 C97.5479824,411.6104 100.404982,406.8904 102.542982,403.2204 C103.432982,401.6804 105.850982,402.0304 106.795982,403.5204 C112.632982,412.7804 129.449982,416.8704 139.278982,417.0004 Z"/><path fill="#2C221B" d="M96.4098239,411.451053 C93.9457469,410.571644 91.7915909,413.352441 93.258939,415.518526 L99.5800143,424.849637 L86.7370553,421.177836 C84.269249,420.472291 82.2968492,423.276968 83.7953906,425.360771 L89.272026,432.97633 L73.537638,429.787494 C70.8859867,429.250093 69.1734024,432.506147 71.1186611,434.386579 L84.1116611,446.946579 C85.1865061,447.985604 86.9001364,447.956566 87.9391615,446.881721 C88.9781866,445.806876 88.9491488,444.093246 87.8743038,443.054221 L81.5426645,436.933588 L94.9623269,439.653306 C97.3747512,440.142224 99.1346874,437.418413 97.6975743,435.420029 L92.7385639,428.524255 L105.25591,432.102964 C107.687263,432.798087 109.659281,430.075889 108.241026,427.982274 L102.379644,419.329758 L115.941141,424.169747 C117.703855,424.798846 119.557822,423.492011 119.557822,421.6204 C119.557822,419.925694 118.798666,418.360256 117.413594,416.600873 L116.922072,415.99613 L116.608239,415.625416 C116.120854,415.060925 115.602245,414.515948 114.56306,413.468194 L112.376992,411.274058 L111.700983,410.580948 C111.356785,410.223032 111.057702,409.902688 110.767939,409.581563 C109.689588,408.386498 108.961379,407.401403 108.560203,406.585991 L108.473419,406.400813 C107.866134,405.034771 106.266436,404.419678 104.900395,405.026963 C103.534353,405.634248 102.91926,407.233946 103.526546,408.599987 C104.182824,410.076236 105.237966,411.534112 106.748655,413.208309 L107.279767,413.786487 L107.733409,414.265437 C107.97004,414.512248 108.223667,414.772523 108.504551,415.057329 L109.600721,416.158778 L96.4098239,411.451053 Z"/><path fill="#7C593E" d="M19.8141599,474.169714 C27.0601026,476.367572 31.9922964,477.533435 38.4132851,478.22526 C47.146539,479.166218 56.3782371,478.733959 66.5272455,476.605907 C68.4191008,476.209221 69.6311752,474.353992 69.2344894,472.462137 C68.8378037,470.570282 66.9825746,469.358207 65.0907194,469.754893 C55.6670976,471.730846 47.1730783,472.128563 39.1631548,471.26554 C33.2675706,470.630325 28.7088513,469.552743 21.846005,467.471086 C19.9962302,466.910008 18.0418474,467.954703 17.4807689,469.804477 C16.9196903,471.654252 17.9643851,473.608635 19.8141599,474.169714 Z"/><path fill="#423023" d="M92.0939824,444.5004 C101.885982,435.5004 109.166982,431.0004 116.999982,421.0004 C121.242982,421.0004 126.843982,421.5004 142.999982,421.5004 C164.051982,421.5004 169.631982,412.5004 178.933982,402.0004 C185.999982,406.5004 182.360982,416.0004 187.256982,429.0004 C191.173982,439.4004 198.516982,455.0004 198.516982,474.0004 C195.089982,480.0004 161.308982,477.0004 150.538982,477.0004 C148.090982,465.0004 128.999982,455.0004 120.499982,452.5004 C113.038982,450.3104 104.333982,449.5004 92.0939824,444.5004 Z"/><path fill="#272727" d="M421.146982,484.8104 C423.024982,480.1704 421.672982,473.8004 420.621982,472.0704 C419.569982,470.3404 291.873982,462.3704 291.873982,462.3704 C270.679982,460.6404 228.667982,453.3604 225.764982,465.8904 C222.172982,481.3904 222.336982,484.8904 224.784982,496.8904 C228.701982,500.8904 268.322982,504.3904 281.169982,501.3904 C281.169982,494.3904 282.169982,489.8904 282.169982,489.8904 C282.169982,489.8904 289.330982,494.4304 297.731982,496.3904 C314.866982,500.3904 318.147982,504.3904 371.221982,504.3904 C413.788982,500.3904 416.942982,495.2004 421.146982,484.8104 Z"/><path fill="#563D2A" d="M283.044982,417.3904 C272.400982,417.5304 256.151982,414.0304 247.297982,401.7604 C246.519982,400.6804 244.927982,400.5104 244.021982,401.4804 C236.059982,410.0404 241.217982,405.1704 238.019982,419.9004 C234.862982,434.4404 232.197982,432.3704 229.040982,445.8604 C226.854982,455.2104 219.775982,477.0204 229.040982,477.0204 L271.294982,477.0204 C281.291982,477.0204 294.793982,488.6304 328.084982,491.8904 C383.347982,497.3104 396.851982,489.8904 407.885982,486.3904 C432.991982,478.4304 420.250982,460.2204 407.885982,454.3904 C389.771982,445.8604 363.810982,439.4604 350.605982,432.3904 C340.322982,426.8904 336.791982,425.1804 331.512982,419.3904 C324.774982,412.0104 321.917982,407.2904 319.780982,403.6104 C318.889982,402.0804 316.471982,402.4204 315.526982,403.9204 C309.689982,413.1704 292.872982,417.2704 283.044982,417.3904 Z"/><path fill="#2C221B" d="M314.081939,428.372274 C312.663683,430.465889 314.635702,433.188087 317.067055,432.492964 L329.584401,428.914255 L324.625391,435.810029 C323.188607,437.807955 324.947426,440.531311 327.359505,440.043535 L340.778871,437.329841 L334.449436,443.443472 C333.374177,444.48207 333.344458,446.195688 334.383055,447.270947 C335.421652,448.346205 337.135271,448.375925 338.210529,447.337328 L351.203529,434.787328 C353.149507,432.907699 351.4383,429.651004 348.78646,430.187265 L333.048409,433.369848 L338.527574,425.750771 C340.026116,423.666968 338.053716,420.862291 335.58591,421.567836 L322.742951,425.239637 L329.064026,415.908526 C330.531374,413.742441 328.377218,410.961644 325.913141,411.841053 L312.722244,416.548778 L313.818414,415.447329 L314.315635,414.939363 C314.785924,414.454741 315.182935,414.032044 315.57431,413.598309 C317.084999,411.924112 318.14014,410.466236 318.796419,408.989987 C319.403705,407.623946 318.788611,406.024248 317.42257,405.416963 C316.109068,404.833035 314.579539,405.379264 313.923951,406.636552 L313.849546,406.790813 C313.471547,407.641092 312.716327,408.68457 311.555026,409.971563 L311.078022,410.490515 L310.55253,411.043043 C310.303377,411.301245 310.030204,411.579739 309.720141,411.892316 L307.284285,414.339685 L306.677846,414.963422 C306.024689,415.644913 305.655733,416.071172 305.145989,416.695792 C303.610993,418.576717 302.765142,420.221543 302.765142,422.0104 C302.765142,423.882011 304.61911,425.188846 306.381824,424.559747 L319.943321,419.719758 L314.081939,428.372274 Z"/><path fill="#7C593E" d="M400.480349,467.870091 L399.039053,468.300915 L397.549355,468.734181 C392.211765,470.260903 388.176013,471.117193 383.160627,471.656728 C375.148657,472.518623 366.655073,472.120633 357.232229,470.14489 C355.340372,469.748213 353.485149,470.960296 353.088472,472.852153 C352.691795,474.74401 353.903878,476.599233 355.795735,476.99591 C365.943685,479.123691 375.174529,479.556227 383.909338,478.616572 C390.32555,477.926342 395.236501,476.767805 402.505616,474.570709 C404.355941,474.011447 405.402554,472.058091 404.843292,470.207766 C404.28403,468.357442 402.330674,467.310828 400.480349,467.870091 Z"/><path fill="#423023" d="M330.228982,444.8904 C320.437982,435.8904 313.155982,431.3904 305.322982,421.3904 C301.079982,421.3904 295.478982,421.8904 279.322982,421.8904 C258.271982,421.8904 252.690982,412.8904 243.388982,402.3904 C236.322982,406.8904 239.961982,416.3904 235.065982,429.3904 C231.149982,439.7904 223.805982,455.3904 223.805982,474.3904 C227.232982,480.3904 261.013982,477.3904 271.783982,477.3904 C274.231982,465.3904 293.322982,455.3904 301.822982,452.8904 C309.283982,450.7004 317.989982,449.8904 330.228982,444.8904 Z"/></g><g fill-rule="nonzero" transform="translate(0 472)"><path fill="#EBBAAA" d="M95.2457941 388.954573L95.0850998 388.275579C94.3935183 385.232657 93.76692 380.887802 93.3259521 375.477952L93.2188185 374.094302 93.1203039 372.678057C92.1467898 357.875985 92.5509297 337.893683 94.2455224 313.981929 97.2661703 271.358712 104.26168 218.306555 112.17404 172.18137 115.628937 152.041014 102.1027 132.913282 81.9623442 129.458385 61.8219883 126.003488 42.6942565 139.529725 39.2393596 159.670081L38.4648625 164.222566C30.4937589 211.466474 23.5459053 264.792623 20.4306526 308.750772L20.2407525 311.487431 20.0579751 314.242051C18.3414757 340.734932 18.0882267 363.304335 19.5705698 381.489905 20.5397134 393.37948 22.2551269 403.630232 25.0192952 412.503331 29.2733652 426.159079 36.0049852 437.288199 47.7516827 444.968672 64.8548076 456.151399 87.7850206 451.351968 98.9677471 434.248843 108.432545 419.773158 106.448471 401.123219 95.2457941 388.954573zM358.495867 159.366734C376.274877 190.883785 388.104488 239.342198 392.159496 292.547027 395.603224 337.731398 392.661166 380.955653 386.417929 398.821386L386.227733 399.354986C379.244236 418.559179 389.151068 439.788496 408.35526 446.771993 427.559453 453.755489 448.78877 443.848658 455.772267 424.644465 466.454562 395.268802 470.152745 342.125676 465.945504 286.923424 461.13814 223.847096 446.876758 165.42726 422.948133 123.008717 412.908144 105.210715 390.340993 98.9216032 372.542991 108.961592 354.74499 119.001582 348.455878 141.568732 358.495867 159.366734z"/><path fill="#EBBAAA" d="M73,74.4997254 C73,50.9997254 124.5,27.0157254 160.5,15.6097254 L207.5,0.0157254159 C214.045,-0.190274584 259.017,1.67972542 265.5,2.57572542 L338.5,27.0157254 C373.091,31.7977254 401.484,50.2537254 398,84.9997254 L385.548,234.298725 L389,430.999725 C389.072,432.813725 308.814,410.092725 307,409.999725 L167,434.279725 L92.5,430.929725 C90.7581,430.836725 89.8557,425.741725 90,423.999725 L100.008,215.879725 L73,74.4997254 Z"/><path fill="#322B1F" d="M408.108,50.9817254 C400.007,41.7887254 373.327,32.4967254 361,28.9997254 C368.778,146.900725 369.629,376.208725 372.447,388.198725 C375.969,403.185725 460.499,418.672725 467.543,412.677725 C474.588,406.682725 482.512,350.229725 480.751,319.255725 C478.99,288.281725 418.234,62.4717254 408.108,50.9817254 Z"/><path fill="#3F3627" d="M466.641,412.999725 C471.041,412.199725 481.141,383.666725 484.641,372.499725 L361.641,352.999725 C360.141,363.166725 357.341,385.199725 358.141,391.999725 C359.141,400.499725 382.141,407.999725 407.141,411.999725 C432.141,415.999725 461.141,413.999725 466.641,412.999725 Z"/><path fill="#322B1F" d="M69.9183,46.9827254 C78.5304,37.7897254 106.894,28.4967254 120,24.9997254 C111.731,142.908725 94.4443,381.722725 91.4487,393.713725 C87.7043,408.702725 27.4889,417.994725 20,411.999725 C12.5111,406.004725 4.08617,349.547725 5.95839,318.571725 C7.8306,287.595725 59.153,58.4737254 69.9183,46.9827254 Z"/><path fill="#3F3627" d="M17.6246,415.615725 C13.3164,414.820725 3.42702,386.469725 4.26325641e-14,375.374725 L120.435,355.999725 C121.904,366.101725 124.645,387.993725 123.862,394.749725 C122.883,403.195725 100.362,410.647725 75.8838,414.621725 C51.4051,418.596725 23.0099,416.609725 17.6246,415.615725 Z"/><polygon fill="#EBBAAA" points="194 5.18 197.5 2.68 249.5 19.18 274 3.68 283.5 7.68 293.5 39.18 235 52.18 188 36.18"/><path fill="#E5EBF9" d="M225.784,91.4087254 C220.973,76.9247254 223.378,55.9477254 223.378,55.9477254 L201.729,64.4397254 L175.749,11.9997254 C145.761,17.4937254 144.478,19.4907254 122.828,29.4797254 C97.0022,41.3947254 102.141,81.4197254 98.2921,135.856725 L93,434.013725 L164.203,445.500725 L211.832,445.999725 L233,107.889725 C233,107.889725 230.595,105.891725 225.784,91.4087254 Z"/><path fill="#DAE2F3" d="M241.458,90.9117254 C229.491,80.4237254 231.486,72.0997254 233.633,63.9427254 L238.696,59.9477254 L268.154,56.9507254 L296.691,14.9997254 C296.691,14.9997254 337.655,20.9927254 351.463,28.9837254 C365.271,36.9737254 373.556,124.372725 373.556,124.372725 L380,435.511725 L308,435.511725 L226.729,420.999725 C225.502,316.454725 214.795,116.245725 226.729,109.390725 C242.379,100.400725 244.22,93.3317254 241.458,90.9117254 Z"/><circle cx="274" cy="85" r="5" fill="#DAE2F3"/><circle cx="197" cy="80" r="5" fill="#E5EBF9"/><circle cx="237.5" cy="127.5" r="7.5" fill="#EDF2FF"/><circle cx="458.641" cy="396.5" r="7.5" fill="#332918"/><circle cx="29.5" cy="397.5" r="7.5" fill="#332918"/><ellipse cx="231.5" cy="199" fill="#EDF2FF" rx="7.5" ry="8"/><circle cx="227.5" cy="270.5" r="7.5" fill="#EDF2FF"/><path fill="#E5EBF9" d="M277,27.4997254 C280.439,16.1237254 277,7.99972542 276,2.99972542 L304,13.4997254 C304,13.4997254 313.5,25.4997254 307.5,52.9997254 C300.927,83.1267254 271.857,94.9997254 265,102.999725 C262,106.499725 263,63.9997254 240,59.4997254 C250.5,56.9997254 270.5,48.9997254 277,27.4997254 Z"/><path fill="#DAE2F3" d="M197.052,34.4997254 C190,24.4997254 193.658,10.4737254 197.052,2.99972542 L172.5,11.4997254 C172.5,11.4997254 158.382,35.8077254 166.014,59.3007254 C175.5,88.4997254 209.294,99.0507254 209,95.4997254 C206,59.3007254 217.989,60.6497254 223,55.9997254 C214.5,53.9997254 206.424,47.7887254 197.052,34.4997254 Z"/><path fill="#483E2D" d="M216.682,139.782725 C209.451,108.993725 203.87,53.7327254 185.285,7.99972542 C185.285,7.99972542 166,9.99972542 147.619,14.8837254 C129.238,19.7677254 107.582,28.6527254 107.582,28.6527254 C95.8803,46.6687254 96.8734,95.6817254 93.5693,198.789725 C90.2653,301.897725 84.4417,405.110725 81,451.537725 C95.4553,456.214725 189.531,477.629725 237.027,460.999725 C237.027,448.999725 241.21,437.559725 241.705,424.000725 C243.32,379.726725 237.817,337.576725 237.027,262.779725 C236.329,196.781725 227.307,185.021725 216.682,139.782725 Z"/><path fill="#5A4D37" d="M133,29.6107254 L185,5.99972542 C193,29.6107254 201.135,56.8207254 210,85.5807254 C220,118.023725 237,179.043725 237,297.999725 L133,102.360725 L167,65.0027254 L133,78.7667254 L133,29.6107254 Z"/><path fill="#483E2D" d="M280.76,151.883725 C280.76,121.612725 282.933,50.8137254 301.399,6.99972542 L353.465,17.6487254 C367.434,20.5057254 379.38,29.2977254 380.472,43.5147254 C382.775,73.4927254 377.791,128.290725 380.257,202.516725 C383.54,301.296725 386.58,404.406725 390,448.883725 C361.021,460.523725 294.295,477.425725 247.105,461.493725 C247.105,451.142725 243.608,445.003725 239.111,425.604725 C238.907,390.825725 236.452,352.967725 237.112,292.721725 C237.805,229.494725 280.76,182.155725 280.76,151.883725 Z"/><path fill="#5A4D37" d="M342,24.4187254 L300,6.99972542 C294.667,26.3547254 281.865,66.7537254 273,95.0647254 C263,126.999725 241,159.902725 241,276.999725 L342,97.9677254 L308,61.1937254 L342,74.7417254 L342,24.4187254 Z"/><circle cx="224.5" cy="328.5" r="8.5" fill="#332918"/><circle cx="224.5" cy="393.5" r="8.5" fill="#332918"/></g><g transform="translate(40.384 .005)"><rect width="78.335" height="118.533" x="157.063" y="415.995" fill="#EBBAAA" fill-rule="nonzero" rx="37.911"/><path fill="#EBBAAA" fill-rule="nonzero" d="M338.8832 349.5282C371.6152 349.5282 398.1492 322.9942 398.1492 290.2622 398.1492 257.5302 371.6152 230.9952 338.8832 230.9952 306.1512 230.9952 279.6162 257.5302 279.6162 290.2622 279.6162 322.9942 306.1512 349.5282 338.8832 349.5282zM59.8832 352.5282C27.1509 352.5282.6164 325.9942.6164 293.2622.6164 260.5302 27.1509 233.9952 59.8832 233.9952 92.6152 233.9952 119.1492 260.5302 119.1492 293.2622 119.1492 325.9942 92.6152 352.5282 59.8832 352.5282z"/><path fill="#F4D4C9" fill-rule="nonzero" d="M41.6162,180.4952 C41.6162,95.7195 110.3402,26.9952 195.1162,26.9952 C279.8922,26.9952 348.6162,95.7195 348.6162,180.4952 L348.6162,252.9952 L346.1512,332.5652 C343.6242,414.1592 276.7492,478.9952 195.1162,478.9952 C116.2482,478.9952 51.0767,417.4652 46.5476,338.7272 L41.6162,252.9952 L41.6162,180.4952 Z"/><path fill="#C99584" fill-rule="nonzero" d="M163.876919,391.725905 C183.465763,402.608596 206.585847,402.326644 231.53154,392.121588 C235.467336,390.51149 237.352686,386.015655 235.742588,382.07986 C234.13249,378.144064 229.636655,376.258714 225.70086,377.868812 C204.772251,386.430516 186.456374,386.65388 171.355481,378.264495 C167.638215,376.199347 162.950643,377.538654 160.885495,381.255919 C158.820347,384.973185 160.159654,389.660757 163.876919,391.725905 Z"/><path fill="#000" fill-rule="nonzero" d="M246.1162 270.9952L246.1162 288.9952C246.1162 295.622617 251.488783 300.9952 258.1162 300.9952 264.743617 300.9952 270.1162 295.622617 270.1162 288.9952L270.1162 270.9952C270.1162 264.367783 264.743617 258.9952 258.1162 258.9952 251.488783 258.9952 246.1162 264.367783 246.1162 270.9952zM117.1162 270.9952L117.1162 288.9952C117.1162 295.622617 122.488783 300.9952 129.1162 300.9952 135.743617 300.9952 141.1162 295.622617 141.1162 288.9952L141.1162 270.9952C141.1162 264.367783 135.743617 258.9952 129.1162 258.9952 122.488783 258.9952 117.1162 264.367783 117.1162 270.9952z"/><path fill="#393939" fill-rule="nonzero" d="M243.504064 224.63976L300.762064 222.13776C307.383162 221.848438 312.516082 216.246435 312.22676 209.625336 311.937438 203.004238 306.335435 197.871318 299.714336 198.16064L242.456336 200.66264C235.835238 200.951962 230.702318 206.553965 230.99164 213.175064 231.280962 219.796162 236.882965 224.929082 243.504064 224.63976zM152.576309 200.62066L95.2663085 200.11866C88.6391458 200.060611 83.2197102 205.385929 83.1611902 212.013091 83.1036105 218.640254 88.4289287 224.05969 95.0560915 224.11774L152.366091 224.61974C158.993254 224.677789 164.41269 219.352471 164.47121 212.725309 164.528789 206.098146 159.203471 200.67871 152.576309 200.62066z"/><path fill="#EBBAAA" fill-rule="nonzero" d="M186.335269,297.804138 C180.26344,308.517593 176.724184,320.225974 177.180505,329.779487 C177.807282,342.901692 186.044763,351.7242 199.9142,351.7242 L199.9142,334.7242 C195.581184,334.7242 194.37433,333.431635 194.161145,328.968413 C193.877796,323.036221 196.509392,314.330515 201.125131,306.186262 L186.335269,297.804138 Z"/><path fill="#FFF" fill-opacity=".29" fill-rule="nonzero" d="M207.2132,268.1452 C203.9332,255.8852 212.7532,243.7092 225.4252,243.0062 L296.0942,239.0842 C308.7662,238.3802 318.8802,249.5052 316.9762,262.0522 L312.8402,289.3232 C311.4192,298.6852 303.6292,305.7682 294.1742,306.2932 L234.7712,309.5902 C225.3172,310.1152 216.7902,303.9382 214.3432,294.7912 L207.2132,268.1452 Z"/><path fill="#000" fill-rule="nonzero" d="M203.1882,276.2722 C203.8232,279.5252 206.9742,281.6472 210.2262,281.0122 C213.4792,280.3772 215.6012,277.2262 214.9662,273.9742 L203.1882,276.2722 Z M206.8412,263.6672 L212.7302,262.5172 L212.6882,262.3032 L212.6312,262.0922 L206.8412,263.6672 Z M221.4582,244.8622 L221.3352,238.8642 L221.0632,238.8692 L220.7922,238.8992 L221.4582,244.8622 Z M299.9412,243.2502 L300.5632,237.2822 L300.1922,237.2442 L299.8182,237.2512 L299.9412,243.2502 Z M315.7672,258.9282 L321.7232,259.6552 L321.7292,259.6022 L321.7352,259.5502 L315.7672,258.9282 Z M308.0992,272.2402 C307.6982,275.5292 310.0392,278.5212 313.3282,278.9222 C316.6182,279.3232 319.6102,276.9822 320.0112,273.6932 L308.0992,272.2402 Z M214.9662,273.9742 L212.7302,262.5172 L200.9522,264.8162 L203.1882,276.2722 L214.9662,273.9742 Z M212.6312,262.0922 C212.6442,262.1402 212.4752,261.3272 212.7662,259.9852 C213.0332,258.7522 213.6702,257.1742 215.0992,255.5502 L206.0892,247.6242 C200.3722,254.1242 200.0172,261.4362 201.0522,265.2412 L212.6312,262.0922 Z M215.0992,255.5502 C216.7432,253.6802 218.4232,252.4872 219.7862,251.7572 C221.2342,250.9812 222.1392,250.8242 222.1242,250.8252 L220.7922,238.8992 C217.3822,239.2802 211.3092,241.6892 206.0892,247.6242 L215.0992,255.5502 Z M221.5812,250.8612 L300.0652,249.2492 L299.8182,237.2512 L221.3352,238.8642 L221.5812,250.8612 Z M299.3202,249.2182 C300.0672,249.2952 301.6842,249.6252 303.3992,250.3652 C305.1322,251.1122 306.4912,252.0732 307.2942,253.1302 L316.8512,245.8742 C314.3642,242.5982 310.9942,240.5722 308.1522,239.3462 C305.2922,238.1132 302.4892,237.4832 300.5632,237.2822 L299.3202,249.2182 Z M307.2942,253.1302 C308.5272,254.7552 309.1712,256.1722 309.4932,257.1752 C309.8542,258.2972 309.7582,258.7052 309.7992,258.3062 L321.7352,259.5502 C322.0642,256.3852 320.8542,251.1462 316.8512,245.8742 L307.2942,253.1302 Z M309.8112,258.2022 L308.0992,272.2402 L320.0112,273.6932 L321.7232,259.6552 L309.8112,258.2022 Z"/><path fill="#FFF" fill-opacity=".29" fill-rule="nonzero" d="M72.4832,261.1002 C70.8012,248.5212 81.1092,237.5762 93.7662,238.5022 L164.3552,243.6662 C177.0122,244.5922 185.6182,256.9212 182.1222,269.1212 L174.5262,295.6372 C171.9182,304.7402 163.2842,310.7672 153.8402,310.0762 L94.5042,305.7352 C85.0602,305.0442 77.3952,297.8252 76.1402,288.4392 L72.4832,261.1002 Z"/><path fill="#000" fill-rule="nonzero" d="M68.6502,274.3242 C69.1792,277.5952 72.2592,279.8192 75.5302,279.2902 C78.8022,278.7612 81.0252,275.6812 80.4962,272.4092 L68.6502,274.3242 Z M72.7112,261.8442 L78.6342,260.8862 L78.5992,260.6712 L78.5482,260.4582 L72.7112,261.8442 Z M87.9302,243.5242 L88.0022,237.5252 L87.7302,237.5212 L87.4592,237.5432 L87.9302,243.5242 Z M166.4252,244.4622 L167.2402,238.5172 L166.8702,238.4672 L166.4962,238.4622 L166.4252,244.4622 Z M181.7332,260.6462 L187.6622,261.5652 L187.6702,261.5132 L187.6772,261.4612 L181.7332,260.6462 Z M173.6362,273.7012 C173.1292,276.9762 175.3722,280.0422 178.6462,280.5502 C181.9212,281.0582 184.9872,278.8152 185.4952,275.5402 L173.6362,273.7012 Z M80.4962,272.4092 L78.6342,260.8862 L66.7872,262.8012 L68.6502,274.3242 L80.4962,272.4092 Z M78.5482,260.4582 C78.5602,260.5062 78.4172,259.6882 78.7522,258.3572 C79.0592,257.1332 79.7472,255.5762 81.2282,253.9992 L72.4792,245.7862 C66.5542,252.0962 65.9622,259.3932 66.8732,263.2292 L78.5482,260.4582 Z M81.2282,253.9992 C82.9322,252.1842 84.6502,251.0462 86.0352,250.3612 C87.5072,249.6322 88.4182,249.5042 88.4022,249.5062 L87.4592,237.5432 C84.0382,237.8132 77.8902,240.0232 72.4792,245.7862 L81.2282,253.9992 Z M87.8592,249.5242 L166.3532,250.4612 L166.4962,238.4622 L88.0022,237.5252 L87.8592,249.5242 Z M165.6092,250.4062 C166.3542,250.5082 167.9592,250.8902 169.6502,251.6852 C171.3572,252.4882 172.6842,253.4922 173.4522,254.5752 L183.2402,247.6342 C180.8612,244.2792 177.5592,242.1442 174.7582,240.8272 C171.9402,239.5012 169.1582,238.7802 167.2402,238.5172 L165.6092,250.4062 Z M173.4522,254.5752 C174.6322,256.2402 175.2292,257.6762 175.5192,258.6902 C175.8432,259.8222 175.7342,260.2282 175.7882,259.8302 L187.6772,261.4612 C188.1092,258.3092 187.0702,253.0332 183.2402,247.6342 L173.4522,254.5752 Z M175.8032,259.7262 L173.6362,273.7012 L185.4952,275.5402 L187.6622,261.5652 L175.8032,259.7262 Z"/><path stroke="#000" stroke-width="10" d="M181.1162,266.4932 C185.4492,264.1602 196.6162,260.8932 206.6162,266.4932"/><path fill="#6E6C6C" fill-rule="nonzero" d="M304.6162 128.4952C301.5162 102.4812 298.7192 83.8016 296.6522 66.4587 295.1892 54.1741 295.0372 51.0408 329.9582 76.7814 364.8802 102.5222 370.1162 158.9952 360.6162 206.9952L346.1162 263.9952 335.3332 261.3302 339.6162 188.9952C322.0212 171.2842 307.7162 154.5102 304.6162 128.4952zM60.4412 156.2432C61.8832 130.0872 58.9364 131.4342 59.8982 113.9962 60.5792 101.6442 64.8352 104.3472 42.7858 126.9962 30.6162 139.4962 35.1981 193.2022 37.7886 228.3262L40.867 260.6992 45.7857 260.9702 48.0063 220.7032C56.6988 192.8002 58.9986 182.4002 60.4412 156.2432z"/><path fill="#272727" d="M200.2802,6.07918 L200.2792,6.07918 C200.2052,6.07918 200.1312,6.07918 200.0572,6.07918 C199.9832,6.07918 199.9092,6.07918 199.8362,6.07918 L199.8352,6.07918 C152.6742,6.24301 39.7529,32.3917 35.5093,154.7642 C48.0486,139.6902 67.4152,133.1152 84.6162,123.2782 C120.8262,102.5712 150.3932,94.9903 189.6252,94.9903 C223.3382,94.9903 264.6882,102.6222 292.6162,115.9952 C317.5982,127.9592 339.7462,136.9332 364.1632,154.7642 C359.9192,32.392 247.4382,6.24301 200.2802,6.07918 Z"/><polygon fill="#272727" fill-rule="nonzero" points="77.486 43.113 67.808 77.495 195.391 57.737 341.197 84.391 340.89 70.244 330.489 65.921 330.247 54.806 317.136 55.091 316.763 37.912 299.906 38.279 295.874 25.224 280.89 25.549 271.708 12.607 256.344 16.984 251.485 9.002 235.565 9.348 235.367 .254 214.025 9.816 208.208 .844 199.041 10.142 189.478 1.251 171.882 10.732 160.447 1.882 148.47 11.241 140.041 11.425 130.852 19.712 126.93 11.71 111.383 29.234 100.994 25.416 87.843 45.416"/><mask id="b" fill="#fff"><use xlink:href="#a"/></mask><rect width="156.116" height="106.091" x="134.616" y="53.995" fill="#272727" fill-rule="nonzero" mask="url(#b)"/></g></g></svg>