<svg xmlns="http://www.w3.org/2000/svg" enable-background="new 0 0 66 66" viewBox="0 0 66 66" id="school-girl"><path fill="#FAB687" d="M64.696,64.9055H1.3183c0-3.0251-0.0054-3.1461,0.0103-3.2883c0.3606-6.627,9.7813-9.8582,17.0931-13.6497
			c0-0.0103,0.0104-0.0103,0.0104-0.0103c2.7795-1.4532,2.5222-1.4994,2.6368-1.4994c1.198-0.7357,2.5896-1.1425,3.8881-1.2409
			c0.2482-0.0207,0.5067-0.0311,0.7548-0.0311c14.5297,0.1888,16.2066-0.5806,19.2233,1.2719c0.079,0-0.4288-0.1433,2.5024,1.427
			c6.4761,3.2331,7.081,3.4711,8.9757,4.5085c0.0931,0.0517,0.1758,0.093,0.2689,0.1448
			C67.6178,58.5436,63.8967,62.7467,64.696,64.9055z"></path><path fill="#EF4F63" d="M64.696 64.9055H39.8371c9.5335-23.1822 5.0093-12.1809 6.2767-15.2628l1.3236-1.7579c8.6149 4.3009 16.9086 7.4748 17.2482 13.7323C64.7036 61.7786 64.696 61.7005 64.696 64.9055zM26.1047 64.9055H1.3183c0-4.6386-.7609-7.4963 8.2725-12.5121 1.9333-1.0617 7.8825-3.9582 7.9829-3.9915l1.4994 1.7269L26.1047 64.9055z"></path><path fill="#C1D8E4" d="M56.4131 52.3934c-2.8644 0-6.7318.2068-8.1898 1.1685-2.0927 1.3629-5.7431 9.6114-6.3181 11.3436H36.921c2.5334-2.9884 6.0079-6.4215 4.312-11.2713-.9927-2.8437.5584-5.9045-.1861-8.4173 3.0011.2688 3.7589 1.3573 6.8558 2.9057C50.6637 49.5601 53.6935 50.9043 56.4131 52.3934zM29.0828 64.9055h-4.9842c-.6151-1.8416-4.1702-9.9448-6.3181-11.3436-1.4581-.9617-5.3254-1.1685-8.1898-1.1685 6.4745-3.5554 12.8864-6.9886 15.3662-7.1764-.7446 2.5128.8065 5.5736-.1861 8.4173C23.0749 58.484 26.5494 61.9171 29.0828 64.9055z"></path><path fill="#3D2F46" d="M55.7682 64.9278c-1.7521 0-3.4107-.4088-4.8942-1.1213-4.5554-2.196-6.9383-7.3238-5.9571-12.2997 1.3547-6.802 2.5443-16.0462-.4322-22.3099 1.6586 0 3.2239.3505 4.6372.9928 4.4632 1.9635 7.1767 6.725 6.4243 11.9726C54.1913 51.5419 51.7384 58.7489 55.7682 64.9278zM10.246 64.9278c7.2469 0 12.199-6.5861 10.8512-13.421-1.3547-6.802-2.5443-16.0462.4322-22.3099-6.6752 0-12.0947 5.759-11.0615 12.9654C11.8229 51.5419 14.2758 58.7489 10.246 64.9278z"></path><path fill="#FAB687" d="M39.6704,36.7326v9.5916c0,3.9152-2.8937,7.0876-6.4649,7.0876h-0.3968
		c-3.5712,0-6.4649-3.1724-6.4649-7.0876v-9.5916H39.6704z"></path><path fill="#F8A771" d="M33.0317,47.8039L33.0317,47.8039c-3.2766,0-6.0745-2.2825-6.3623-5.2942
		c-0.0944-0.9882-0.1002-2.0174-0.0012-3.0623c0.2855-3.0122,3.0853-5.2949,6.3622-5.2949h0.0013
		c3.527,0,6.3863,2.6383,6.3863,5.8929v1.8656C39.418,45.1655,36.5588,47.8039,33.0317,47.8039z"></path><ellipse cx="33.007" cy="26.065" fill="#FAB687" rx="15.334" ry="18.633"></ellipse><path fill="#3D2F46" d="M45.5795,23.7425c-6.0307-2.7555-11.9633-7.2402-17.8492-12.5553
		c-2.2998,5.4557-4.8339,10.3705-8.3773,12.9258c-1.0094,0.724-1.6014,1.9123-1.5332,3.1516
		c0.1405,2.7299,0.8518,5.362,2.057,7.9003C8.2957,22.7346,16.3155,1.0722,33.0071,1.0722c10.2683,0,18.586,8.9395,18.586,19.9616
		c0,5.3961-1.9932,10.2981-5.2385,13.8926C48.1708,30.7153,49.6574,25.598,45.5795,23.7425z"></path><path fill="#FAB687" d="M17.9712,29.7139c1.3964,8.5433,7.5952,14.9849,15.036,14.9849c7.4407,0,13.6395-6.4416,15.0359-14.9849
		H17.9712z"></path><path fill="#663430" d="M38.6282,36.5579c-0.0775,1.3073-0.6294,2.4692-1.4816,3.3407c-0.0193,0.0194-0.029,0.0291-0.0484,0.0484
			c-0.1065,0.1066-0.213,0.2131-0.3389,0.3099c-0.8521,0.7456-1.9657,1.2395-3.1954,1.3557
			c-0.1743,0.0097-0.368,0.0194-0.5519,0.0194c-0.2712,0-0.5326-0.0194-0.794-0.0485c-0.2421-0.0387-0.4745-0.0871-0.7069-0.1549
			c-0.0194,0-0.0291-0.0097-0.0485-0.0097c-0.0387-0.0097-0.0871-0.029-0.1259-0.0387c-2.169-0.6294-3.8248-2.508-3.9507-4.8223
			H38.6282z"></path><path fill="#EF4F63" d="M37.1466,39.8986c-0.0193,0.0194-0.029,0.0291-0.0484,0.0484c-0.1065,0.1066-0.213,0.2131-0.3389,0.3099
			c-0.8521,0.7456-1.9657,1.2395-3.1954,1.3557c-0.1743,0.0097-0.368,0.0194-0.5519,0.0194c-0.2712,0-0.5326-0.0194-0.794-0.0485
			c-0.2615-0.0387-0.5132-0.0871-0.7649-0.1549l0.0096-0.0097c0.1259-0.3099,0.3293-0.5907,0.5713-0.8521
			c0.6391-0.7069,1.5687-1.1523,2.5273-1.2297c0.7553-0.0485,1.5106,0.1452,2.2271,0.4164
			C36.9045,39.8018,37.0304,39.8405,37.1466,39.8986z"></path><ellipse cx="48.695" cy="27.685" fill="#FAB687" rx="3.683" ry="4.213"></ellipse><ellipse cx="17.319" cy="27.685" fill="#FAB687" rx="3.683" ry="4.213"></ellipse><g><path fill="#3D2F46" d="M28.1793 22.4165l-3.9835.9578c-.5258.1208-.8489.653-.728 1.1786l.0005.0123c.1332.5251.6652.8483 1.1904.7151l3.984-.9455c.4641-.1183.7668-.5507.7476-1.0065-.0026-.0617-.0052-.1233-.0201-.1844C29.2365 22.6065 28.7167 22.2827 28.1793 22.4165zM41.8184 23.3742l-3.9835-.9578c-.5374-.1338-1.0572.19-1.1909.7274-.015.0611-.0175.1227-.0201.1844-.0192.4559.2835.8882.7476 1.0065l3.984.9455c.5252.1332 1.0572-.19 1.1904-.7151l.0005-.0123C42.6673 24.0272 42.3441 23.4951 41.8184 23.3742z"></path><circle cx="38.784" cy="28.186" r="1.878" fill="#3D2F46"></circle><circle cx="27.23" cy="28.186" r="1.878" fill="#3D2F46"></circle></g></svg>