<svg xmlns="http://www.w3.org/2000/svg" xmlns:xlink="http://www.w3.org/1999/xlink" enable-background="new 0 0 72 72" viewBox="0 0 72 72" id="teenager"><circle cx="36" cy="36" r="35" fill="#CED7DC"></circle><defs><circle id="a" cx="36" cy="36" r="35"></circle></defs><clipPath id="b"><use overflow="visible" xlink:href="#a"></use></clipPath><g clip-path="url(#b)"><path fill="#5C2F2A" d="M61.6424,50.8477c-0.4215,0.6787-1.0525,1.5551-1.6835,2.3668
				c-1.8872,2.4255-4.4827,3.8548-7.0154,3.7811c-0.0095-0.0057-0.0152,0.0038-0.04,0.0019
				c-0.8638-0.0279-1.7277-0.1204-2.5302-0.4221c-1.7782-0.6818-3.2621-2.3906-3.7234-4.5721
				c-0.3855,0.7911-0.4496,1.7368-0.0603,2.3595c-2.1169-0.8077-3.2206-3.5571-3.1349-6.3675
				c0.0856-2.8104,1.1684-5.6424,2.4622-8.2438c1.2994-2.6109,2.8213-5.075,3.9666-7.7527c1.1549-2.672,1.9259-5.6528,1.5128-8.3231
				c0.0057-0.0095,0.0057-0.0095-0.0038-0.0152c-0.0397-0.2569-0.1211-0.4874-0.254-0.6969
				c-0.5145-0.8666-1.6998-1.0488-2.5834-0.5706l-11.7898,6.528l0.47-9.7536l3.6245-2.3642c1.8512-1.2038,3.9474-1.9755,6.138-2.237
				c3.2716-0.4009,6.4789,0.338,9.1693,1.9573c2.3672,1.4247,4.3281,3.5243,5.5767,6.1405l0.2903,0.6151
				c0.9165,1.8985,1.5017,3.9601,1.5655,6.0705c0.0293,0.7689-0.0136,1.5717-0.1498,2.3575
				c-0.4066,2.2678-1.6881,4.3325-3.0968,6.1136c-1.3935,1.7773-2.977,3.3755-4.2317,5.2881
				c-1.3939,2.1007-2.4212,4.7975-0.9667,7.0069c0.2355,0.3619,0.53,0.6687,0.8741,0.9146
				C57.637,52.1667,59.7496,51.8194,61.6424,50.8477z"></path><path fill="#FAB687" d="M71.3326,70.9964h-64l3.6746-8.5703c2.7088-6.3611,8.9588-10.4911,15.8862-10.4911h24.9561
				c0.7327,0,1.4543,0.0556,2.1759,0.1556c5.9948,0.7882,11.2236,4.6737,13.6437,10.3355L71.3326,70.9964z"></path><rect width="12.612" height="23.367" x="33.028" y="42.579" fill="#FAB687"></rect><path fill="#F8A771" d="M46.3812,43.7031v-7.9276c0-4.2635-3.1552-7.7198-7.0473-7.7198h0c-3.8921,0-7.0473,3.4563-7.0473,7.7198
				v7.9276c0,4.2635,3.1552,7.7198,7.0473,7.7198h0C43.226,51.423,46.3812,47.9667,46.3812,43.7031z"></path><ellipse cx="39.334" cy="30.918" fill="#FAB687" rx="15.813" ry="19.215"></ellipse><path fill="#663430" d="M55.6415,27.3475c0,1.9285-0.241,3.8854-0.6948,5.6297c-4.2542,0-8.2956-1.8151-11.1176-5.0058
				l-1.5596-1.7584l-2.269-2.5383c-1.5398-1.7338-3.6119-2.8712-5.8618-3.2499c-0.9939-0.1673-2.0162,0.0631-2.8875,0.5697h0
				c-1.4464,0.8366-2.4674,2.2405-2.8219,3.8712l-0.7516,3.3892c-0.4681,2.1271-2.0277,3.772-4.0132,4.3959
				c-0.4111-1.6733-0.6381-3.46-0.6381-5.3035c0-10.6212,7.303-19.2288,16.3076-19.2288
				C48.3386,8.1187,55.6415,16.7263,55.6415,27.3475z"></path><ellipse cx="53.975" cy="33.797" fill="#FAB687" rx="3.143" ry="4.496"></ellipse><ellipse cx="24.693" cy="33.797" fill="#FAB687" rx="3.143" ry="4.496"></ellipse><path fill="#58B57B" d="M26.8934 51.9388h4.7181V71H7.3326l3.6746-8.5703C13.716 56.0686 19.9661 51.9388 26.8934 51.9388zM71.3326 71H47.0537V51.9388h4.7958c.7327 0 1.4543.0556 2.1759.1553 5.9948.7773 11.2236 4.6628 13.6437 10.3355L71.3326 71z"></path><path fill="#E45D68" d="M47.0537,59.1287v11.8677H31.6116V59.1287c2.2092,1.4766,4.8625,2.3425,7.7266,2.3425
				C42.1913,61.4712,44.8445,60.6164,47.0537,59.1287z"></path><circle cx="33.732" cy="32.869" r="1.747" fill="#3D2F46"></circle><circle cx="44.936" cy="32.869" r="1.747" fill="#3D2F46"></circle><path fill="#3D2F46" d="M35.1918,28.6931l-0.0586-0.299c-0.0764-0.3899-0.4543-0.644-0.8441-0.5676l-3.8496,0.7542
					c-0.3898,0.0764-0.6439,0.4543-0.5676,0.8441l0.0586,0.299c0.0764,0.3899,0.4543,0.644,0.8441,0.5676l3.8496-0.7542
					C35.014,29.4608,35.2681,29.0829,35.1918,28.6931z"></path><path fill="#663430" d="M44.4063,43.9276c-0.1011,0.1572-0.2247,0.3033-0.3595,0.4493
					c-0.1685,0.2023-0.3708,0.3821-0.5955,0.5505c-0.0224,0.0112-0.0337,0.0225-0.0449,0.0337
					c-0.1124,0.0787-0.2135,0.1573-0.337,0.2246c-0.8538,0.5506-1.9548,0.9101-3.1794,1c-0.1798,0.0112-0.3708,0.0112-0.5505,0.0112
					c-0.2696,0-0.5281-0.0112-0.7864-0.0337c-0.2022-0.0337-0.3932-0.0562-0.5955-0.09c-0.0337-0.0112-0.0786-0.0112-0.1123-0.0225
					c-0.0225,0-0.0337-0.0112-0.0449-0.0112c-0.045,0-0.0899-0.0224-0.1236-0.0224c-1.5166-0.3258-2.7749-1.1011-3.4377-2.1233
					c-0.4044-0.6179,0.0562-1.4268,0.7864-1.4268h8.6168C44.3951,42.4671,44.822,43.3097,44.4063,43.9276z"></path><path fill="#EF4F63" d="M44.0468,44.3769c-0.1685,0.2023-0.3708,0.3821-0.5955,0.5505
					c-0.0224,0.0112-0.0337,0.0225-0.0449,0.0337c-0.1124,0.0787-0.2135,0.1573-0.337,0.2246c-0.8538,0.5506-1.9548,0.9101-3.1794,1
					c-0.1798,0.0112-0.3708,0.0112-0.5505,0.0112c-0.2696,0-0.5281-0.0112-0.7864-0.0337c-0.2022-0.0337-0.3932-0.0562-0.5955-0.09
					c0.146-0.2471,0.3258-0.483,0.5168-0.6964c0.7639-0.8315,1.8761-1.3707,3.0108-1.4605
					C42.3504,43.8601,43.2155,44.0848,44.0468,44.3769z"></path></g></svg>