<svg xmlns="http://www.w3.org/2000/svg" xmlns:xlink="http://www.w3.org/1999/xlink" data-name="Layer 1" viewBox="0 0 1920 1080"><defs><linearGradient id="a" x1="643.58" x2="718.04" y1="800.06" y2="800.06" gradientUnits="userSpaceOnUse"><stop offset="0" stop-color="#b6f5e9"/><stop offset="1" stop-color="#69a8c9"/></linearGradient><linearGradient id="c" x1="13706.19" x2="13780.66" y1="819.42" y2="819.42" gradientTransform="matrix(1 0 0 -1 -13134.79 1638.85)" xlink:href="#a"/><linearGradient id="d" x1="571.73" x2="714.72" y1="922.09" y2="922.09" xlink:href="#a"/><linearGradient id="e" x1="557.48" x2="728.97" y1="843.01" y2="843.01" xlink:href="#a"/><linearGradient id="f" x1="14628.87" x2="14731.18" y1="-1680.8" y2="-1680.8" gradientTransform="rotate(144.1 7292.962 -2764.427)" xlink:href="#a"/><linearGradient id="g" x1="10627.23" x2="10729.53" y1="-9502.25" y2="-9502.25" gradientTransform="rotate(-144.1 7287.714 -2778.233)" xlink:href="#a"/><linearGradient id="h" x1="592.07" x2="694.38" y1="566.37" y2="566.37" xlink:href="#a"/><linearGradient id="i" x1="1951.13" x2="2053.44" y1="-8114.46" y2="-8114.46" gradientTransform="rotate(-72 7296.552 -2773.69)" xlink:href="#a"/><linearGradient id="j" x1="8426.8" x2="8529.11" y1="4541.95" y2="4541.95" gradientTransform="rotate(72 7296.551 -2773.697)" xlink:href="#a"/><linearGradient id="b" x1="1031.58" x2="1181.77" y1="777.97" y2="777.97" gradientUnits="userSpaceOnUse"><stop offset="0" stop-color="#a0b6f2"/><stop offset="1" stop-color="#8c69c9"/></linearGradient><linearGradient id="k" x1="784.93" x2="1421.81" y1="519.47" y2="519.47" xlink:href="#b"/><linearGradient id="l" x1="804.33" x2="1402.41" y1="519.47" y2="519.47" gradientUnits="userSpaceOnUse"><stop offset="0" stop-color="#8c69c9"/><stop offset="1" stop-color="#a0b6f2"/></linearGradient><linearGradient id="m" x1="381.43" x2="1017.04" y1="292.67" y2="292.67" gradientUnits="userSpaceOnUse"><stop offset="0" stop-color="#f5e72a"/><stop offset="1" stop-color="#6fe426"/></linearGradient><linearGradient id="n" x1="947.13" x2="1281.27" y1="885.17" y2="885.17" xlink:href="#b"/><linearGradient id="o" x1="14327.51" x2="13993.37" y1="949.01" y2="949.01" gradientTransform="matrix(-1 0 0 1 15274.63 0)" xlink:href="#b"/><clipPath id="p"><rect width="636.88" height="593.53" x="784.93" y="100" fill="none"/></clipPath></defs><path fill="#ddf4f4" d="M506.67,982.86h923.05q6.09-5.65,12-11.4c33-31.71,64.81-65.51,86.74-105.66,7.59-13.88,14-30.78,7.18-45.08-3.44-7.27-9.88-12.7-16.76-16.87-41.11-24.9-102.58-13-132.08-50.89-16.57-21.3-16.11-51.3-10.14-77.61,8.86-39,28.16-77.56,21.7-117.06-8.6-52.5-60.72-87.65-112.5-99.86s-106.05-8-158.61-16.25-107.81-33.87-127.92-83.12c-10-24.55-10.72-53.53-27.52-74-15.64-19.09-41.84-26.16-66.5-27.15-93.8-3.8-183.39,75-191.55,168.57-3.66,42,6,88.66-18.13,123.23-26.59,38.07-79.91,42.05-125.52,50.74-42,8-84.49,24.29-111.94,57C428.8,692.51,421.14,741.34,424.14,787,428.89,859.12,459.39,928.33,506.67,982.86Z"/><path fill="url(#a)" d="M700.25,762.83h8.21a9.58,9.58,0,0,1,9.58,9.58v8.21a56.68,56.68,0,0,1-56.68,56.68h-8.21a9.58,9.58,0,0,1-9.58-9.58v-8.21A56.68,56.68,0,0,1,700.25,762.83Z"/><line x1="643.23" x2="643.23" y1="624.99" y2="840.86" fill="none" stroke="#75acc9" stroke-miterlimit="10" stroke-width="11.83"/><path fill="url(#c)" d="M581,782.19h8.21a56.68,56.68,0,0,1,56.68,56.68v8.21a9.58,9.58,0,0,1-9.58,9.58h-8.21A56.68,56.68,0,0,1,571.41,800v-8.21a9.58,9.58,0,0,1,9.58-9.58Z" transform="rotate(180 608.64 819.425)"/><path fill="url(#d)" d="M679.5,982.86H607a15.53,15.53,0,0,1-15.28-12.74l-19.94-108.8h143l-19.94,108.8A15.53,15.53,0,0,1,679.5,982.86Z"/><rect width="171.5" height="36.62" x="557.48" y="824.7" fill="url(#e)" rx="12.11"/><polygon fill="#75acc9" points="571.73 861.32 714.73 861.32 712.63 872.73 573.82 872.73 571.73 861.32"/><circle cx="680.81" cy="682.04" r="51.15" fill="url(#f)"/><circle cx="605.64" cy="682.04" r="51.15" fill="url(#g)"/><circle cx="643.23" cy="566.37" r="51.15" fill="url(#h)"/><circle cx="581.16" cy="611.06" r="51.15" fill="url(#i)"/><circle cx="704.04" cy="610.55" r="51.15" fill="url(#j)"/><circle cx="643.23" cy="624.99" r="29.43" fill="#fff"/><path fill="#8060b8" d="M1151.37,750.91V702.69h-59.3v48.22a83.62,83.62,0,0,1-18.25,52.15l-24.56,30.78a12,12,0,0,0,9.35,19.41h126.22a12,12,0,0,0,9.35-19.41l-24.56-30.78A83.62,83.62,0,0,1,1151.37,750.91Z"/><path fill="url(#b)" d="M1136.32,750.91V702.69H1077v48.22a83.63,83.63,0,0,1-18.26,52.15l-24.56,30.78a12,12,0,0,0,9.35,19.41h126.23a12,12,0,0,0,9.34-19.41l-24.55-30.78A83.63,83.63,0,0,1,1136.32,750.91Z"/><rect width="636.88" height="384.37" x="802.84" y="327.28" fill="#8060b8" rx="31.82"/><rect width="636.88" height="384.37" x="784.93" y="327.28" fill="url(#k)" rx="33.34"/><rect width="598.08" height="348.13" x="804.33" y="345.4" fill="url(#l)" rx="28.07"/><rect width="635.6" height="391.07" x="381.43" y="97.14" fill="url(#m)" rx="28.31"/><rect width="601.26" height="355.04" x="398.6" y="115.16" fill="#fff" rx="26.24"/><text fill="#7d7d7d" font-family="Montserrat-Bold,Montserrat" font-size="104.35" font-weight="700" transform="translate(478.65 323.14)">a + b = c</text><path fill="url(#n)" d="M947.13,853.25h300.21c18.74,0,33.93,14.29,33.93,31.92h0c0,17.63-15.19,31.92-33.93,31.92H947.13"/><path fill="#8060b8" d="M1263.89,857.31a30.58,30.58,0,0,1,7.07,19.5h0c0,17.62-15.19,31.92-33.93,31.92H947.13v8.36h300.21c18.74,0,33.93-14.29,33.93-31.92h0C1281.27,873.2,1274.25,862.77,1263.89,857.31Z"/><path fill="url(#o)" d="M1281.27,917.09H981.05c-18.73,0-33.92,14.29-33.92,31.92h0c0,17.63,15.19,31.92,33.92,31.92h300.22"/><path fill="#8060b8" d="M1273.54,917.09V973.2H973.32a35.17,35.17,0,0,1-20.5-6.49,34.5,34.5,0,0,0,28.23,14.22h300.22V917.09Z"/><path fill="#b26c50" d="M974.69,446.39h5.42a17.54,17.54,0,0,1,17.54,17.54V482.8a11.09,11.09,0,0,1-11.09,11.09H968.24a11.09,11.09,0,0,1-11.09-11.09V463.93a17.54,17.54,0,0,1,17.54-17.54Z" transform="rotate(-47.22 977.405 470.138)"/><path fill="#b26c50" d="M965.71,468.64h0a8.24,8.24,0,0,1,8.24,8.24V499.8a1.83,1.83,0,0,1-1.83,1.83H959.29a1.83,1.83,0,0,1-1.83-1.83V476.88a8.24,8.24,0,0,1,8.24-8.24Z" transform="rotate(-83.98 965.766 485.116)"/><line x1="964.62" x2="936.34" y1="473.9" y2="448.96" fill="none" stroke="#b26c50" stroke-linecap="round" stroke-linejoin="round" stroke-width="15.11"/><g clip-path="url(#p)"><circle cx="1082.38" cy="300.41" r="24.08" fill="#182844"/><circle cx="1081.86" cy="295.81" r="24.08" fill="#182844"/><circle cx="1333.53" cy="318.15" r="24.08" fill="#182844"/><circle cx="1333.53" cy="342.24" r="24.08" fill="#182844"/><circle cx="1305.46" cy="376.53" r="24.08" fill="#182844"/><circle cx="1103.67" cy="366.32" r="24.08" fill="#182844"/><circle cx="1087.68" cy="333.55" r="24.08" fill="#182844"/><path fill="#182844" d="M1333.53,320.19c0,70.65-57.28,80.42-127.93,80.42s-127.92-9.77-127.92-80.42a127.93,127.93,0,0,1,255.85,0Z"/><circle cx="1101.76" cy="234.5" r="24.08" fill="#182844"/><circle cx="1131.66" cy="222.17" r="24.08" fill="#182844"/><circle cx="1155.37" cy="198.09" r="24.08" fill="#182844"/><circle cx="1179.45" cy="192.27" r="24.08" fill="#182844"/><circle cx="1209.91" cy="192.27" r="24.08" fill="#182844"/><circle cx="1243.14" cy="198.09" r="24.08" fill="#182844"/><circle cx="1281.38" cy="206.54" r="24.08" fill="#182844"/><circle cx="1295.43" cy="226.53" r="24.08" fill="#182844"/><circle cx="1315.24" cy="250.62" r="24.08" fill="#182844"/><circle cx="1319.51" cy="266.93" r="24.08" fill="#182844"/><circle cx="1327.74" cy="291.53" r="24.08" fill="#182844"/><circle cx="1105.02" cy="341.67" r="22.95" fill="#b26c50"/><circle cx="1305.61" cy="341.67" r="22.95" fill="#b26c50"/><circle cx="1205.31" cy="330.95" r="110.26" fill="#b26c50"/><path fill="#b26c50" d="M1315.58,331a110.27,110.27,0,0,0-109.69-110.26c-60.23-.31-110.1,48.66-110.83,108.88a110.29,110.29,0,0,0,85.15,108.76,4.72,4.72,0,0,1,3.61,4.63h0a4.81,4.81,0,0,1-4.44,4.76A48.87,48.87,0,0,0,1135,496.4h0a48.87,48.87,0,0,0,48.87,48.88h43a48.88,48.88,0,0,0,48.88-48.88h0a48.87,48.87,0,0,0-44.43-48.67,4.82,4.82,0,0,1-4.45-4.76v0a4.74,4.74,0,0,1,3.64-4.63A110.29,110.29,0,0,0,1315.58,331Z"/><path fill="#934b3e" d="M1186.17,389.27c6.09,0,13.93-9.75,19.87-3.81s-1.06,23.1-19.87,23.1S1157.61,391.18,1165,385,1178.81,389.27,1186.17,389.27Z"/><ellipse cx="1136.87" cy="344.86" fill="#fff" rx="37.01" ry="42.75"/><ellipse cx="1148.04" cy="344.86" fill="#182844" rx="24.03" ry="27.76"/><ellipse cx="1162.19" cy="325.56" fill="#fff" rx="4.43" ry="6.28" transform="rotate(-40.07 1162.16 325.555)"/><ellipse cx="1235.43" cy="344.86" fill="#fff" rx="37.01" ry="42.75"/><ellipse cx="1224.26" cy="344.86" fill="#182844" rx="24.03" ry="27.76"/><ellipse cx="1238.42" cy="325.56" fill="#fff" rx="4.43" ry="6.28" transform="rotate(-40.07 1238.386 325.56)"/><path fill="#934b3e" d="M1207.81 281.89a35 35 0 015.69-2 53.11 53.11 0 015.36-1.09c.87-.13 1.72-.21 2.58-.31s1.68-.11 2.53-.17a44.93 44.93 0 014.92 0 55.62 55.62 0 0118.11 4 56.69 56.69 0 0115.9 9.56 45.34 45.34 0 013.58 3.39c1.16 1.19 2.29 2.49 3.39 3.85a48.1 48.1 0 013.16 4.45 35.62 35.62 0 012.81 5.31l-.61 1.54c-2.9-.95-5.77-2-8.65-3l-8.59-3.16c-5.72-2.12-11.38-4.38-17.08-6.56s-11.32-4.55-16.94-6.92l-8.42-3.58c-2.78-1.25-5.59-2.45-8.35-3.75zM1094.42 309.9a36.33 36.33 0 012.64-5.41 52.18 52.18 0 013-4.56c.53-.7 1.08-1.36 1.61-2s1.11-1.27 1.67-1.91a44.14 44.14 0 013.47-3.5 55.87 55.87 0 0115.61-10 56.48 56.48 0 0118-4.48 44.53 44.53 0 014.93-.14c1.67 0 3.38.14 5.12.32a51.79 51.79 0 015.38.92 36.56 36.56 0 015.75 1.76l.65 1.52c-2.72 1.38-5.49 2.67-8.23 4l-8.31 3.84c-5.54 2.55-11.15 5-16.72 7.44s-11.22 4.79-16.87 7.09l-8.49 3.42c-2.85 1.08-5.68 2.22-8.55 3.25z"/><circle cx="1125.6" cy="242.28" r="24.08" fill="#182844"/><circle cx="1162.35" cy="222.17" r="24.08" fill="#182844"/><circle cx="1206.52" cy="226.53" r="24.08" fill="#182844"/><circle cx="1235.38" cy="222.17" r="24.08" fill="#182844"/><circle cx="1267.16" cy="230.63" r="24.08" fill="#182844"/><circle cx="1288.91" cy="253.7" r="24.08" fill="#182844"/><circle cx="1312.07" cy="285.16" r="24.08" fill="#182844"/><circle cx="1315.36" cy="321.32" r="24.08" fill="#182844"/><circle cx="1089.11" cy="266.37" r="24.08" fill="#182844"/><path fill="#5b4c40" d="M1230.84,605.78c0,18.64-22.48,168.87-37.49,267.12-2.31,15.09-24,15.09-26.36,0-15-98.25-37.49-248.48-37.49-267.12a50.67,50.67,0,1,1,101.34,0Z"/><path fill="#5b4c40" d="M1281.13,605.78c0,18.64-22.49,168.87-37.5,267.12-2.31,15.09-24.05,15.09-26.35,0-15-98.25-37.5-248.48-37.5-267.12a50.68,50.68,0,1,1,101.35,0Z"/><polyline fill="none" stroke="#ffdf7a" stroke-linecap="round" stroke-linejoin="round" stroke-width="39.13" points="1281.9 471.63 1325.33 567.59 1241.9 601.22"/><polyline fill="none" stroke="#ffdf7a" stroke-linecap="round" stroke-linejoin="round" stroke-width="39.13" points="1128.73 471.63 1094.75 574.67 1017.04 506.78"/><rect width="67.11" height="29.59" x="1118.53" y="898.89" fill="#5b4c40" rx="14.79"/><rect width="67.11" height="29.59" x="1221.87" y="898.89" fill="#5b4c40" rx="14.79"/><path fill="#ffdf7a" d="M1256.74,448.23h-102.9A36,36,0,0,0,1118,487.65L1129.89,612h150.8l11.88-124.31A36,36,0,0,0,1256.74,448.23Z"/><path fill="#b26c50" d="M1178.67,594.48h13.39A11.51,11.51,0,0,1,1203.56,606V635.6a18.2,18.2,0,0,1-18.2,18.2h0a18.2,18.2,0,0,1-18.2-18.2V606a11.51,11.51,0,0,1,11.51-11.51Z" transform="rotate(65.99 1185.334 624.094)"/><path fill="#b26c50" d="M1181.57,589.79h11.53a1.64,1.64,0,0,1,1.64,1.64V612a7.41,7.41,0,0,1-7.41,7.41h0a7.41,7.41,0,0,1-7.41-7.41V591.43A1.64,1.64,0,0,1,1181.57,589.79Z" transform="rotate(102.75 1187.343 604.643)"/></g></svg>